<svg xmlns="http://www.w3.org/2000/svg" viewBox="0 0 130.32 52.03">
  <title>bin-dawood-emailer</title>
  <g id="Layer_2" data-name="Layer 2">
    <g id="bin-dawood-emailer">
      <g>
        <path d="M11.85,0l.5.06s0,.05.06.05c.42.11,0,0,.33.11,0,0,.14,0,.22,0s.09.08.12.08a.42.42,0,0,0,.19,0s.09.09.11.09a.5.5,0,0,0,.17,0c0,.06.06.12.11.12s.09,0,.14,0,0,.08.2.13c0,.17.16.14.3.14s0,0-.05,0a.17.17,0,0,0,.14.06c0,.08.14.11.22.11v.08c.17.06.2.17.33.14s0,0,0,.06a3.7,3.7,0,0,0,.69.56c.06.08.31.22.31.33s0,.14,0,.2h-.16s-.06.08-.09.08c-.22.17-.33.14-.47.39h-.11a.18.18,0,0,0-.13-.14h0a3,3,0,0,0-.3-.33s-.09,0-.11,0a.43.43,0,0,0-.06-.09.42.42,0,0,1-.14,0,.09.09,0,0,0,0-.06.41.41,0,0,0-.14-.06.21.21,0,0,0-.22-.08.06.06,0,0,1,0,0,1,1,0,0,0-.25-.12,1.57,1.57,0,0,0-.39-.19c-.09,0-.17,0-.25,0s-.09-.08-.14-.08-.42,0-.53-.11H10.93c-.22.16-.42.05-.59.11s-.08,0-.14.08-.19,0-.3,0-.06.08-.11.08-.14,0-.23,0-.08.08-.11.08-.22,0-.22.14-.09,0-.14,0S9,2.15,9,2.17s-.14,0-.14.14H8.75c-.19.26-.47.37-.55.67C8.06,3,8,3.21,8,3.29a.55.55,0,0,0-.11.25s-.05.06-.08.08,0,.28-.11.37v.78c.11.05,0,.25.11.33A.39.39,0,0,0,8,5.24c0,.11.16.28.27.36s.14.23.31.23.09.11.14.11.2,0,.2.06,0,0-.06,0a.26.26,0,0,0,.2.06.21.21,0,0,0,.11.08c.05,0,.14,0,.19,0s0,.06.11.08.14,0,.23,0,0,.09.14.09a7.21,7.21,0,0,0,.92.05l1.11-.05s.06-.09.14-.09.22,0,.34,0a.05.05,0,0,0,0,0A6.12,6.12,0,0,0,13,6.05c.06,0,.09-.08.14-.11.25,0,.53-.22.78-.25,0,0,.06-.06.06-.09s.22,0,.22,0,0,0,0,0c.16,0,.16-.08.22-.08s0,0,0,0a.22.22,0,0,0,0-.11.27.27,0,0,0,.14,0s.09,0,.09-.08a.48.48,0,0,0,.22-.14A2.33,2.33,0,0,1,15.2,5s.05,0,.05-.08a.75.75,0,0,0,.36-.23c.12,0,.34-.11.39-.25s.2,0,.2-.11.19,0,.19-.11a.18.18,0,0,0,.12,0s.08,0,.08-.08A.3.3,0,0,0,16.76,4s0,0,.11,0S17,3.9,17,3.85s.08,0,.14,0,.06-.06.08-.08.39-.12.39-.17,0,0-.05,0a1,1,0,0,1,.22,0s.06-.06.06-.09a.3.3,0,0,0,.16,0s.06-.05.09-.11a.38.38,0,0,0,.22-.11A.33.33,0,0,0,18.51,3a.37.37,0,0,0,.23-.11.42.42,0,0,0,.19,0s.06-.06.09-.08a.22.22,0,0,0,.14-.06c.08-.06.22-.06.33-.11s0,0,0-.06a.59.59,0,0,0,.3-.14,1,1,0,0,0,.23,0s.08-.06.08-.09a.46.46,0,0,0,.2,0,4.55,4.55,0,0,1,.47-.19s.14,0,.22,0,.12,0,.14-.11.17.11.37-.11a1.23,1.23,0,0,0,.33,0,.06.06,0,0,0,.06-.06,2.2,2.2,0,0,0,.44-.05A2,2,0,0,1,23,1.62s.14-.09.22-.09h.5s.06,0,.06-.05,0,.05.05.05.14-.08.25-.08a5,5,0,0,1,.9,0,5.4,5.4,0,0,1,.94,0,1.76,1.76,0,0,0,.37.08h.67c.11,0,.22.12.3.12h.53c.09,0,.14.08.23.08s.3,0,.44,0,.06.05.14.08.25,0,.39,0,.11.11.17.11a.28.28,0,0,0,.22,0c.14.11.28.08.42.14s-.06,0,.33.11c.09.11.23.08.34.11s.17.09.28.11.08.09.14.12.08,0,.14,0,.16.11.33.22c0,0,.09,0,.11,0a.83.83,0,0,1,.2.11c.14.11.25.25.39.22a3.25,3.25,0,0,0,.47.36,2.28,2.28,0,0,1,.39.37c.23.19.34.44.56.55,0,.06.08.09.08.17a.06.06,0,0,0,.06.06v.08l.11.08c0,.06,0,.2.11.2s0,.11.09.14a.45.45,0,0,1,0,.25l.09.08c0,.28.14.25.14.42s.08.17.11.25,0,.23,0,.34.11.08.11.16V8.42c0,.08-.11.11-.11.2s0,.28-.06.39-.08.19-.08.28-.06,0-.09.05,0,.2-.08.25,0,0-.06.06-.08.14-.11.22-.11.22-.17.31,0,.05-.08.08a1,1,0,0,1-.14.28c-.17.08-.22.2-.33.36s-.42.39-.42.48-.09,0-.11,0a1.14,1.14,0,0,1-.31.31c-.08,0-.08.06-.17.11s-.11.09-.16.11a.17.17,0,0,0-.12.17h-.16c-.06,0,0,.09,0,.11s-.06,0-.11,0-.06.09-.09.09-.19,0-.19.11a.45.45,0,0,0-.23.11c-.08,0-.39.17-.39.25a1.12,1.12,0,0,0-.3.11s-.11,0-.17,0-.06.08-.08.08-.11,0-.17,0-.06.09-.08.09a.68.68,0,0,1-.2,0s-.08.09-.11.09-.25,0-.31.14-.16,0-.19,0-.14.16-.31.14V25.57H22.22V13.05h3.91s.05-.11.13-.11.23,0,.34,0,0-.08.14-.08.17,0,.25,0,.06-.06.14-.08.22,0,.33-.14a.67.67,0,0,0,.2,0c.05,0,.11-.06.14-.12a.62.62,0,0,0,.19,0s.06-.06.09-.09a.3.3,0,0,0,.16,0c.06-.05.14-.05.23-.11s.33-.22.44-.22.06-.06.09-.11.14,0,.19-.11.17,0,.14-.11a.27.27,0,0,0,.14,0c.31-.31.34-.2.34-.25s0,0-.06,0,.08-.06.11-.06.06,0,.06-.11.08,0,.11-.11c.25-.11.45-.5.67-.72a.18.18,0,0,0,0-.12c.11-.08.11-.19.19-.28s0-.16.06-.25.08,0,.08,0,.06-.31.11-.45.14-.42.14-.58V7.81s0-.14,0-.2-.09-.11-.09-.16,0-.26,0-.37,0,0-.05,0,0-.23-.06-.37-.05,0-.08-.08a.4.4,0,0,0,0-.19s0,0-.05-.06,0-.14-.06-.22S30.75,6,30.73,6c-.09-.23,0-.17-.14-.17s0,0,0-.09,0-.08-.11,0,0-.09,0-.17-.05-.08-.11-.08a1.61,1.61,0,0,0-.58-.7l-.39-.45a.25.25,0,0,1-.12,0c-.05-.09-.14-.09-.19-.12s0,0,0-.05-.19-.22-.31-.2-.19-.22-.39-.22a.19.19,0,0,0-.05-.08c-.31,0-.14,0-.23-.11a.44.44,0,0,1-.19,0c-.11-.25-.17-.09-.25-.09s0-.05,0-.05-.22-.09-.28-.11S27.1,3.12,27,3.1,26.91,3,26.85,3s-.22,0-.33,0-.09-.08-.14-.08-.31,0-.48,0a1,1,0,0,1-.22-.08c-.11-.06-.22,0-.34,0l-1.72,0c-.12,0-.31.11-.39.11h-.56c-.17.17-.48.06-.61.11s-.14.09-.2.09-.22,0-.31,0-.11.09-.16.09-.2,0-.28,0-.09,0-.09.12-.28,0-.36,0-.05.09-.08.09-.14,0-.2,0-.14.08-.19.11a.74.74,0,0,1-.25,0s-.09.08-.12.08a2,2,0,0,1-.47.14s-.08.08-.11.08-.08,0-.14,0a.25.25,0,0,0-.08.14S19,4,18.9,4s-.11.09-.14.11-.25,0-.22.12-.14,0-.19.11-.06,0-.17.11-.28.08-.34.25-.16.14-.25.22-.33.28-.33.37-.08.08-.11.11-.17.08-.2.16c-.16.37-.33.45-.33.76,0,.11-.09.08-.14.16s0,.2,0,.28-.06.06-.08.12V8.14c0,.09.08.17.11.17s0,.11,0,.17.08.11.08.19a.39.39,0,0,0,.06.17,1.8,1.8,0,0,0,.36.33.13.13,0,0,0,.08,0c.06.06.17.17.28.11s.06.09.11.11.28,0,.37.14h1c.09-.14.14-.08.23-.14s.41-.36.41-.55.14-.11.12-.25V8.53c.08-.19.11-.16.11-.33V7.56c.19-.31.25-.2.39-.23a.23.23,0,0,0,.14-.11.74.74,0,0,0,.25,0s.08-.08.14-.08.22.75.22.78-.11.84-.17,1.23c-.16.05-.05.25-.11.36a.46.46,0,0,0-.11.22s-.06.06-.08.09,0,.14,0,.16a.54.54,0,0,0-.25.37l-.11.11-.12.11s-.11,0-.08.17a.09.09,0,0,1-.08,0,.29.29,0,0,0-.11.11,1,1,0,0,0-.34.22c-.05,0-.17,0-.17.09s0,0,.06,0l-.25,0s-.09.09-.11.09-.28,0-.28.16l-.17,0c-.08,0-.22.14-.31.14H17c-.25-.23-.22-.17-.33-.14s-.06-.06-.11-.11-.2-.12-.34-.14A.83.83,0,0,0,16,11s-.08-.08-.14-.11-.13-.11-.25-.25a.08.08,0,0,0,0-.05s-.06,0-.09-.06-.08-.06-.08-.11a.3.3,0,0,0-.17-.22s0-.06,0-.12h-.08c-.25.23-.11.12-.22.31,0,0,0,0-.06.06a.74.74,0,0,0-.14.36,2.55,2.55,0,0,0-.5.56s-.14.08-.06.14h-.11s0,.08-.05.08a.23.23,0,0,0-.14.11,2.42,2.42,0,0,0-.59.48s-.11.08-.17.11-.11.08-.16.11-.06,0-.11,0-.06.08-.09.08-.17.14-.28.14a.76.76,0,0,1-.08.11c-.08,0-.2,0-.2.14s-.25-.11-.27.14h3.26a1,1,0,0,0,.28.08,4.72,4.72,0,0,0,.67,0c.05,0,.14.11.22.11s.19,0,.31,0,.11.11.16.11.17,0,.25,0c.25.11,0,.06.34.11.05.2.19.06.39.2,0,0,.08,0,.11,0a.39.39,0,0,0,.25.11s0,0,0,.05a.3.3,0,0,0,.2.09,4.49,4.49,0,0,1,.39.33c.14.11.25.39.45.48,0,.08,0,.28.13.25,0,.19,0,.11.06.25a3.52,3.52,0,0,1,.08.81c0,.08,0,.22,0,.92,0,.05-.06.11-.12.19s0,.2,0,.28-.06,0-.11.08,0,.14,0,.17A.2.2,0,0,0,19,18a.09.09,0,0,0,0-.06,2.47,2.47,0,0,1-.48.45s-.19,0-.19.11-.14,0-.17,0,0,.08-.11.08-.25,0-.28.2a1.11,1.11,0,0,1,.36.05v0a.4.4,0,0,0,.17,0c.11.11.22.11.34.19s.08,0,.11,0a.77.77,0,0,0,.19.14s.11.11.2.08.08.09.11.14a.11.11,0,0,1,0,.09c.11,0,.22.22.3.25s.09.14.17.11,0,.25.14.22c0,0,0,0,0,.06s.09.14.11.17a.18.18,0,0,0,.09.16,2.51,2.51,0,0,1,.05.31c0,.06.11.08.11.17v1.61c-.27.34-.11.2-.13.37,0,0-.09.11-.12.19a.09.09,0,0,1-.08.09s0,0,0,.13-.08,0-.17.2a5.21,5.21,0,0,0-.47.47s-.08,0-.08.14H19s-.06.09-.09.09l-.16.11s-.06,0-.11,0-.06.08-.09.08-.14,0-.22.11a.33.33,0,0,0-.22.14.12.12,0,0,1-.14,0c-.37.17,0,.14-.39.14-.12.17-.28.06-.37.11s-.08.06-.14.09-.22,0-.33,0-.08.09-.14.09a3.4,3.4,0,0,1-.45,0c-.08,0-.14.08-.19.11a1.6,1.6,0,0,1-.31,0c-.19,0-.19,0-.22,0s0,0-.06,0-.33.11-.53.14l-14.11,0s0,.06-.13.06H.36V13.16a.12.12,0,0,1,.11-.11h3.6a.2.2,0,0,0,.06-.11,1.21,1.21,0,0,0,.36-.28.1.1,0,0,0,0-.08c.11,0,.28-.23.28-.34s.16-.11.22-.17a1.19,1.19,0,0,0,.14-.3s.11,0,.08-.14a.09.09,0,0,1,.06,0c0-.09.11-.17.17-.28A.91.91,0,0,0,5.6,11c.12-.08.12-.22.2-.3.06-.34.25-.39.25-.59s.08-.08.11-.14,0-.08,0-.14a.35.35,0,0,0,.08-.05.21.21,0,0,0,0-.14l.2-.23a.6.6,0,0,0,0-.22A1.3,1.3,0,0,0,7,8.62s.08,0,.08-.12a.42.42,0,0,0,.14,0s0-.06,0-.09a.23.23,0,0,0,.11,0c.11-.09.22-.2.33-.31a2.87,2.87,0,0,0,.42-.25.14.14,0,0,0,.14,0s.08-.06.08-.08a.46.46,0,0,0,.2,0s.08-.06.08-.09a1,1,0,0,0,.25,0,.33.33,0,0,0-.14-.11c-.08,0-.39,0-.39-.06S8.09,7.31,8,7.28s-.12-.09-.17-.09-.14,0-.22,0-.09-.06-.14-.09-.14,0-.23,0S7.14,7,7.08,7s-.14,0-.19,0-.17-.08-.28-.11-.06-.11-.25-.11c0,0-.09,0-.09,0s0,0,.06,0a.65.65,0,0,0-.17-.08L6.08,6.5a.29.29,0,0,1-.14,0H5.88a.09.09,0,0,0,.06,0,.65.65,0,0,0-.17-.08c0-.09-.17-.11-.22-.23a.08.08,0,0,0-.08,0c0-.14-.09-.08-.14-.14s0,0,0,0S5.13,5.77,5,5.66s-.11-.28-.22-.19c0-.17-.14-.31-.17-.45S4.57,5,4.55,4.94s0-.26-.09-.23c0-.3-.14-.92-.14-1s.09-.48.11-.7.12-.25.12-.39.22-.22.11-.34c.25,0,.08-.08.14-.16s0,0,.08-.06.14-.19.19-.28L5,1.76a.15.15,0,0,0,.11,0s0-.06,0-.08l.11-.12.11-.11a.13.13,0,0,0,.11-.14s0,0,.09,0a.47.47,0,0,0,.22-.22C5.8,1,6,1.06,6,1c.14,0,.3-.23.5-.25,0,0,0-.06,0-.11A.25.25,0,0,0,6.77.47a.47.47,0,0,0,.17,0S7,.39,7,.36s.22,0,.3-.11A4.2,4.2,0,0,0,7.92.11S8,0,8,0s.22,0,.33,0Zm14.3,4.52c.09.05.23,0,.34,0s-.06,0,.3.13c.09.14.2.09.26.12s.05.08.08.08a.27.27,0,0,0,.14,0,.63.63,0,0,0,.19.11c.09.11.31.19.31.28s.14.11.22.17a.2.2,0,0,0,.09,0,5.56,5.56,0,0,0,.47.62s0,.08,0,.11l.08.08c0,.06,0,.09.14.11s0,.09,0,.17.09.08.11.11a3.79,3.79,0,0,1,.14.53s.06.06.06,0a2.83,2.83,0,0,1,.05.5s.09.06.09.14v1c-.14.19-.06.33-.11.52,0,0-.06.06-.09.14s0,.17,0,.26-.06.08-.09.11c0,.19-.14.28-.14.42s-.17.22-.17.25-.13.19-.22.3-.14.14-.22.23-.45.36-.45.44,0,0,.06,0a.34.34,0,0,1-.17,0s-.05.08-.08.08a.36.36,0,0,0-.17.11c-.11.06-.28.09-.28.17s-.11.08-.11.11,0,0-.08,0-.14.09-.2.12-.19,0-.25,0-.11.09-.17.09a3.24,3.24,0,0,1-.44,0s-.06.09-.14.09h-.53c-.17-.17-.48-.09-.62-.11s-.08-.06-.14-.09-.14,0-.22,0-.17-.06-.28-.12-.05-.08-.11-.11-.22-.11-.33-.14l-.17-.11a.5.5,0,0,0-.31-.22s0,0,0,0-.14-.06-.19-.06a.22.22,0,0,0-.14-.16c-.09-.14-.09-.25-.23-.34s-.22-.19-.22-.36-.08-.08-.14-.14,0-.25-.11-.22A.27.27,0,0,0,22,10a.21.21,0,0,0-.08-.11.27.27,0,0,0-.11-.23.74.74,0,0,0,0-.33c0-.11-.11-.17-.11-.22V7.7c0-.09.05-.09.08-.14a.77.77,0,0,0,0-.37c0-.05.14-.11.14-.25A.56.56,0,0,0,22,6.66a1.74,1.74,0,0,1,.11-.25,1.51,1.51,0,0,1,.22-.28s0,0,0-.08.14-.14.14-.22h.09c.11-.11.25-.31.39-.45s.08-.08.11-.14.19,0,.19-.11.11-.06.17-.11a.15.15,0,0,0,.11,0,1.23,1.23,0,0,1,.31-.19s.08,0,.14,0,.08-.11.17-.11a.86.86,0,0,0,.13,0c.06,0,.06-.06.12-.08s.22.11.28-.06c0,0,0,.06.05.06s.11-.09.17-.12h.53A1.83,1.83,0,0,1,26.15,4.52ZM14.53,6.86c0,.06-.12.81-.12.89v.59a.66.66,0,0,1-.13.28.91.91,0,0,1,0,.33s-.06,0-.09.06a3.21,3.21,0,0,1,0,.39s-.06,0-.09.08,0,.14,0,.17a.87.87,0,0,0-.11.22,1.74,1.74,0,0,0-.11.25c-.08,0-.08.14-.11.23a.46.46,0,0,1-.2.13,1,1,0,0,1-.41.48.15.15,0,0,1,0,.08H13l-.33.34c-.08,0-.33.11-.33.19s0,0,0,0-.08-.06-.19.11a.21.21,0,0,1-.14,0s0,.08-.06.11-.14,0-.14.08-.14.06-.19.06-.06.08-.09.08c-.19.06-.19.12-.39.14,0,0-.05.09-.08.09a.68.68,0,0,1-.2,0s0,.09-.08.09-.14,0-.22,0a.14.14,0,0,0-.11.08c-.09,0-.17,0-.26,0s-.13.11-.16.11l-.45.11c-.14.06-.28,0-.42,0s-.16.11-.25.11H8.14c-.19,0-.42.08-.7.11V12.8s0,0,.06,0a.14.14,0,0,0,.11-.06s0,0-.05,0c.16-.16.41-.53.5-.53s0,0,0,.06.05-.08.05-.14.14-.14.2-.17.05-.16.14-.19,0-.09,0-.11a.76.76,0,0,1,.2-.17c0-.11.11-.2.14-.31S9,11,9,11,9,11,9,11c.14,0,.11-.17.14-.22s.11,0,.11-.2.14-.17.11-.22.09-.17.11-.28c.23-.14.31-.64.56-.59,0,0,0,0,0-.08s.14-.17.22-.2.09-.08.12-.11V9s.08,0,.11-.06.11-.08.14-.19a.08.08,0,0,1,.08,0s0-.06.06-.11,0-.06.14-.12A.26.26,0,0,0,11,8.39a.15.15,0,0,0,.14-.11c.09-.08.31-.08.31-.19s.08-.06.17,0a.3.3,0,0,0,0-.14c.09,0,.26,0,.26-.06s0,0-.06,0a3.47,3.47,0,0,1,.45-.26s.08,0,.14,0c.22-.14.13-.17.25-.11s0-.06.05-.09l.48-.25s.11,0,.16,0,.06,0,.09-.08a.31.31,0,0,0,.14,0s.05,0,.08-.08a.29.29,0,0,1,.14,0c.06,0,.08-.06.14-.11s.17,0,.25-.06a.1.1,0,0,0-.06,0l.34,0A.49.49,0,0,1,14.53,6.86ZM85,7l.09.08V21.5c-4,0-4,0-4.1,0h.17L80.94,7.11c0-.08.06-.11.17-.11Zm27.24,3.6c.09,0,.12.05.23.11s.14,0,.19,0,.28.22.39.22a.47.47,0,0,0,.17.14.83.83,0,0,0,.22.28c0,.08,0,.19,0,.28s.08,0,.08.11,0,.05-.08.14,0,.19,0,.25-.16.28-.3.36-.26.08-.34.25,0,0-.08,0l-.17.11c-.08,0-.22,0-.28,0a1.3,1.3,0,0,1-.5.11,1,1,0,0,1-.28,0c-.06,0-.14-.08-.19-.08s-.2,0-.28,0-.09-.05-.14-.11-.09,0-.14,0a.7.7,0,0,0-.2-.22s-.11,0-.16-.06l-.12-.11a.34.34,0,0,0,0-.14s-.06-.08-.09-.11-.08-.28-.08-.36.08-.26.08-.37v-.11s.06,0,.09,0a2.2,2.2,0,0,0,.28-.33c.14,0,.19-.17.42-.22,0,0,.13,0,.19,0a.75.75,0,0,1,.2-.11ZM44.56,13.05c.27,0,.22.11.36.11h.72c.09,0,.09.06.17.08a.81.81,0,0,0,.47,0s.06,0,.06.06.08.05.11.05a1,1,0,0,0,.31,0s0,.11.11.11-.06,0,0,0,0,0,0,0l.3.11s.14,0,.23,0,.08.08.11.08a.3.3,0,0,0,.16,0s.06.08.09.08a.27.27,0,0,0,.14,0c0,.14.19.08.25.14s.17.11.25.19a.13.13,0,0,0,.08,0,.83.83,0,0,0,.17.11.2.2,0,0,0,.2.11c0,.12.08.12.11.14s.12.1.13.11,0,0,0,.06.16.17.22.2a2.24,2.24,0,0,1,.31.47c.11.17.08.33.25.45s0,.19.05.3.09.06.09.11,0,.23,0,.34.12.08.12.17v.8a.24.24,0,0,1,.05.17c0,.09-.05.14-.05.17v7.33c0,.06.05,0,.05.11a4.11,4.11,0,0,1-.08.42H44.28V19s0-.05,0-.14c0-.3-.16-.22-.14-.5,0,0,0-.06,0-.11S44.08,18,44,18s0,0,0,.06c0-.17-.39-.48-.45-.53a1.17,1.17,0,0,0-.58-.36s-.06-.06-.09-.09a.94.94,0,0,1-.22,0c-.06,0-.08-.09-.14-.09s-.31,0-.47-.05,0-.06-.12-.06H39.65c-.22.22-.48,0-.64.2-.06,0-.17,0-.17.05s-.22,0-.22.14-.11.06-.17.06-.22.08-.22.16,0,0,.05,0-.28.2-.28.22,0,0,.06,0c-.14.09-.2.23-.31.31v.05a.35.35,0,0,0-.11.26c0,.05-.08.05-.11.14s0,.22-.11.27v6.86a1.43,1.43,0,0,1-.39.11l-5.66,0a.12.12,0,0,0,0-.08c-.12,0-.28,0-.26-.14a.13.13,0,0,0,0,.08v-.14a.12.12,0,0,0,0,.06v-12l-.05.06c.08-.11.14-.23.19-.31h6a.13.13,0,0,1,.09.14v1.7a.15.15,0,0,0-.06.11c.06,0,.09,0,.14,0s.17-.14.22-.25a.27.27,0,0,0,.14,0s.06-.05.06-.08l.14-.11c.06,0,.19,0,.19-.12s.17,0,.17-.11.2,0,.23-.14a.23.23,0,0,0,.19-.11s.25,0,.22-.11c.14-.05.14,0,.23-.11a.43.43,0,0,0,.22-.11.34.34,0,0,0,.17,0,.13.13,0,0,0,.11-.11.42.42,0,0,0,.19,0s0-.08.11-.08.12,0,.17,0,.08-.06.11-.08.28,0,.34-.12a.94.94,0,0,0,.22,0s.06-.06.14-.09.2,0,.31,0,0-.11.14-.11a1,1,0,0,0,.41,0s.06-.08.14-.08h.59a2.13,2.13,0,0,1,.33-.11ZM61,13.41c.14,0,.27,0,.39,0s.11.08.16.08.09,0,.06-.08,0,.06.06.08h.58c.17.17.39.06.59.12,0,0,0,0,.14.08s.19,0,.27,0,0,.05.12.08.14,0,.19,0,.17.08.28.11c.2.2.47.25.64.45a.2.2,0,0,0,.09,0s.08.2.11.12c0,.11.14.19.25.25.08.25.14.11.14.25s.08.11.11.14a.3.3,0,0,1,0,.16l0,.06a.82.82,0,0,1,.06.39l0,.06a.26.26,0,0,1,.06.16l0,5.58H52.84V18.4h8.25s0-.08.08-.11V15.92c-.14-.14-.08-.11-.08-.17a.59.59,0,0,0-.31-.19s.06,0,.06-.08-.17,0-.25,0-.11-.11-.2-.11H56.68s0,0,0,0l-2.48,0a.23.23,0,0,0-.14.09H53.9s0,0,0-.09a.25.25,0,0,1,.11-.19,4,4,0,0,0,.56-.61,6.27,6.27,0,0,0,.53-.59c0-.06.08-.06.08-.11s.09-.06.11-.11.14-.06.11-.11a1,1,0,0,0,.28-.23Zm34.26,0c.14,0,.28,0,.39,0s.09.08.17.08h.64c.17.14.48,0,.64.12s0,0,.12.08a.84.84,0,0,0,.3,0c0,.14.2.08.31.11s.14.14.28.11a.1.1,0,0,0,.08.11s.08,0,.11,0a1.2,1.2,0,0,0,.2.11s0,.08.08.08.17.14.25.14v.06c0,.06.14.06.2.06l-.06,0a2.28,2.28,0,0,1,.42.64c0,.09.14.2.17.31a1.72,1.72,0,0,1,.08.59v5.43s-.05.09-.14.09l-12.41,0V18.4h8.26l0-2.56a3.59,3.59,0,0,0-.39-.39c-.13.05-.25-.11-.39-.11H91s-.06,0-.06,0l-2.51,0a.17.17,0,0,0-.11.09h-.14v-.31c0-.08.09,0,.14,0a.87.87,0,0,0,.23-.3l.11-.12a.11.11,0,0,0,.11-.13.11.11,0,0,1,.08,0,.11.11,0,0,0,0-.14.22.22,0,0,0,.11,0c0-.06.11-.09.14-.2a5.17,5.17,0,0,0,.81-.81Zm-19.12,0s0,.06.14.06h2.28V23.87c0,.14-.17.05-.11.22a.08.08,0,0,1-.08,0c-.06.12-.14.14-.2.23s-.25.16-.33.22-.09,0-.11,0a2.16,2.16,0,0,1-.31.19s-.22,0-.25.14-.11,0-.2,0,0,.08-.11.08-.14,0-.22,0-.09.09-.11.09a2.63,2.63,0,0,0-.45.11c-.11,0-.25,0-.36,0s-.09.08-.14.11a1,1,0,0,1-.25,0c-.17,0-.14,0-.14,0s0,0-.06,0a1,1,0,0,0-.22.08,2.55,2.55,0,0,1-.73.06h-.55c-.06,0-.12.08-.2.08h-.75a.53.53,0,0,0-.31-.08A12,12,0,0,1,71,25.43l-.06-.06c-.25,0-.53,0-.81,0-.08,0-.19-.11-.27-.11h-.51a3,3,0,0,1-.28-.17V23.84s0,.06,0,0v-.14l.17,0c.08,0,0,.08.14.08s.27,0,.41,0,.09.11.17.11h.56c.19,0,.36.14.5.14S71,24,71,24v0a3.61,3.61,0,0,0,.51,0A4,4,0,0,0,72.3,24a.05.05,0,0,0,0-.05c.17,0,.37,0,.53-.06s.09-.05.12-.08a.64.64,0,0,0,.22,0s.08-.06.11-.08.19,0,.19-.06,0,0,0,0c.22,0,0,0,.28-.14,0,0,.14-.05.14-.14h0s.06-.05.06-.11.11-.08.19-.19.06-.09,0-.14a.06.06,0,0,0,.09,0s0-.06,0-.11.08-.09.13-.14a2.1,2.1,0,0,1,0-.59H72c-.11,0-.28-.11-.33-.11s-.06.06,0,.08c-.14-.16-.33-.08-.47-.11s-.14-.08-.2-.08-.25,0-.36,0-.09,0-.14-.08-.2,0-.28,0-.08-.06-.11-.08a.61.61,0,0,1-.22,0c-.06-.11-.12-.11-.31-.08,0-.17-.2-.14-.22-.17s-.17-.09-.23-.11-.08-.06-.08-.06L68.87,21a.35.35,0,0,0-.14-.11l-.17-.11c0-.08-.11-.14-.16-.08s0,0,0-.06-.25-.22-.36-.33a2.84,2.84,0,0,0-.17-.36.13.13,0,0,0-.08,0,1.15,1.15,0,0,0-.08-.28c0-.05,0-.19-.06-.25s-.08-.08-.08-.14,0-.44-.14-.55v-2a4.2,4.2,0,0,0,.14-.59c0-.16.08-.3.11-.47a.31.31,0,0,1,.08-.19.21.21,0,0,0,0-.14s.06-.06.08-.09,0-.08,0-.14c.2-.19.39-.42.61-.67h.06s.08,0,.11-.11a.36.36,0,0,0,.17-.11c.14-.05.14,0,.22-.11s.14,0,.23-.14c0,0,0,0,.11,0s.14-.09.16-.14h.14c.06,0,.09-.09.17-.11s.2,0,.28,0,.06-.08.14-.08.25,0,.36,0,.11-.09.2-.09h.75a2.11,2.11,0,0,1,.22-.08ZM31.09,25.37v0Zm76.2-11.48.31.08,2.26,0s0-.06.11-.06.11.06.16.06.12-.06.17-.06a.2.2,0,0,1,.17.11l0,3.71s.06.06.06.14v1s-.06,0-.06.06.06,0,.06.05-.06,0-.06.06v1.45s.06,0,.06.06-.06,0-.06.08.08.17.08.25,0,.14,0,.2.14.16.14.25.09.05.09,0,.22.27.33.25,0,.08.06.08a5,5,0,0,0,.53.06c.08,0,.39,0,.58-.06,0,0,.06-.06.06-.08.22,0,.28-.28.44-.37s.11-.25.14-.39a2,2,0,0,1,0-.42V16.31l.06,0V14h4.29v4.29s.06.09.11.14h7.72V13.89h4.35V21.5h-12c-.06.05-.17.08-.17.17s0,.3,0,.44,0,.06-.08.14,0,.14,0,.17a.34.34,0,0,0-.14.11,1.64,1.64,0,0,0-.22.25c-.06,0-.08,0-.08.14h-.14s-.06.08-.09.08l-.19.12s-.09,0-.11,0c-.2.12-.28.12-.37.23s-.16.05-.16.05,0-.05,0-.05-.09.11-.14.11-.17,0-.25,0-.09.08-.14.08-.23,0-.34,0-.11.08-.16.08-.34,0-.51,0-.16.11-.25.11h-.72c-.17,0-.45.11-.53.11h-2.34a3,3,0,0,0-.39-.11h-.65c-.25-.19-.47-.05-.61-.14s0-.05-.11-.08-.2,0-.31,0-.22-.08-.3-.11-.26-.11-.28-.11-.06-.09-.09-.11a1.13,1.13,0,0,1-.33-.14c-.06,0-.11-.09-.17-.12a3.6,3.6,0,0,1-.36-.33,1.46,1.46,0,0,0-.2-.25c-.08-.06,0-.22-.16-.25,0,0,0-.14,0-.17s-.08-.06-.08-.11,0-.25,0-.39-.06-.08-.06-.14V19.21l.06-.05V13.89ZM56,15.42h0Zm34.26,0h0Zm-33.9,0h0Zm18.06.25v3.87h-.8a3,3,0,0,1-1.15-.39,1.83,1.83,0,0,1-.41-.58V16.45c.5-.67,1.2-.56,1.84-.75Zm-62.9.36c.37,0,1.4.17,1.4.75,0,.81-1.2.87-1.59.87H6.86V16.06Zm.39,4.55a3.74,3.74,0,0,1,.39.05c.31.09.9.11,1.09.64,0,.06.08.12.08.17a1,1,0,0,1-.72.87,2,2,0,0,0-.28.05,2,2,0,0,1-.36.08H6.86V20.61Zm111.81,2.23c.06,0,.11.08.17.08a.72.72,0,0,0,.25,0,.35.35,0,0,0,.22.11.27.27,0,0,0,.23.11c0,.17.22.28.33.36a.25.25,0,0,1,0,.14c0,.09,0,.12.08.12a.42.42,0,0,1,.06.25c0,.27-.25.53-.28.67a.09.09,0,0,0,0-.06,2.28,2.28,0,0,1-.22.22.36.36,0,0,0-.17.11c-.11,0-.19.12-.22.12s-.14,0-.23,0-.08.09-.13.09a2.86,2.86,0,0,1-.48,0,2.6,2.6,0,0,1-.44,0c-.06,0-.12-.06-.17-.09s-.17,0-.25,0-.23-.09-.25-.12a.14.14,0,0,0-.17-.08.09.09,0,0,1,0-.06.3.3,0,0,0-.2-.05s0-.06,0-.08a2,2,0,0,0-.25-.34v-.64c.11-.17.22-.31.31-.45s.14-.05.14-.11.11-.08.19-.11.09,0,.11,0a.22.22,0,0,0,.14-.08.69.69,0,0,0,.23,0l.16-.08h.39A2,2,0,0,1,123.74,22.84ZM9.87,25.54h0Zm.33,0h0Zm.14,0h0Zm66.89.89a4.07,4.07,0,0,0,.81.12h.53a1.43,1.43,0,0,1,.22.08c.17.06.42,0,.59,0s.14.11.2.11.25,0,.39,0,.08.05.16.08.23,0,.34,0,0,.05.14.08.19,0,.3,0,.06.06.14.08.14,0,.23,0,0,.11.11.11-.06,0,0,0,0,0,0,0h.17s0,.09.11.11.14,0,.17,0,.19.09.25.11a1.76,1.76,0,0,0,.39.2s.08,0,.11,0a.31.31,0,0,0,.22.11.72.72,0,0,0,.28.22.67.67,0,0,0,.28.14c.11.14.2.11.31.22s.22.28.33.23a.1.1,0,0,1,0,.05c.19.17.36.37.52.53a.11.11,0,0,1,0,.09,1.16,1.16,0,0,1,.2.16,1.15,1.15,0,0,1,.14.2.15.15,0,0,1,0,.11.47.47,0,0,1,.11.2l.08.08a.15.15,0,0,1,0,.11c.11.08.05.17.19.25a.4.4,0,0,1,0,.2c0,.05.08.14.11.22a.66.66,0,0,1,0,.25c.17,0,.06.34.11.5s.11.11.11.2v1.5c0,.09-.08.14-.11.25s0,.23,0,.34-.05.06-.08.14,0,.19,0,.28-.16.16-.11.25a.41.41,0,0,0-.14.31s-.05,0-.08.08a.36.36,0,0,1,0,.17s-.06,0-.08,0-.23.28-.23.45-.08,0-.11,0a.23.23,0,0,1-.05.14,7.69,7.69,0,0,0-.7.7s-.11.06-.17.11,0,.06-.08.06a.15.15,0,0,0,0,.11s0,0-.06,0-.19.14-.3.22-.14,0-.14.09,0,0,0,0a.62.62,0,0,1-.19,0s-.08.09-.11.09-.17.11-.28.14-.08.08-.11.11-.09,0-.11,0a.42.42,0,0,0-.14.11c-.06,0-.12.06-.17,0s-.08.08-.11.08-.11,0-.17,0-.08.08-.11.08a.46.46,0,0,1-.2,0,.21.21,0,0,1-.11.08s-.14,0-.19,0-.11.09-.14.11-.14,0-.23,0-.14.09-.19.12-.22,0-.34,0,0,.09-.11.09-.28,0-.36,0-.11.09-.17.09-.3,0-.44,0-.2.11-.28.11h-.53a1.5,1.5,0,0,1-.34.11h-.92a.42.42,0,0,1-.19,0L77,38.7a2.23,2.23,0,0,1-.42.06H75c-.14,0-.28,0-.42-.06a.64.64,0,0,0-.22-.08H73.33a2.36,2.36,0,0,0-.36-.11H72.3l-.17-.06s0-.05-.11-.05h-.5c-.06,0-.11-.12-.17-.12a2.26,2.26,0,0,0-.45,0c-.05,0-.08-.06-.13-.09s-.28,0-.39,0-.17-.12-.23-.12-.17,0-.25,0c-.05-.19-.25-.11-.36-.14s-.14,0-.14-.08a3.46,3.46,0,0,1-.53-.14s-.06-.05-.08-.08a.46.46,0,0,1-.2,0s-.08-.11-.14-.11-.08,0-.14,0,0-.06-.08-.11a1.73,1.73,0,0,1-.45-.23s-.08,0-.14,0a1.57,1.57,0,0,0-.19-.12s-.06,0-.06,0,0,0,.06,0-.14,0-.2-.06-.08-.16-.17-.19-.11,0-.13-.06-.14,0-.14-.11-.09-.08-.14-.11c-.28-.25-.48-.5-.7-.7a2.9,2.9,0,0,0-.34-.5c-.11-.14-.11-.42-.27-.42,0,0,0,0,0,0a.37.37,0,0,0-.08-.19s-.09,0-.09-.09,0-.13,0-.22-.09-.05-.09-.11,0-.19,0-.25S65,33.8,65,33.74s0-.25,0-.39-.08-.17-.08-.22V31.84c0-.11.11-.19.11-.3v-.09c0-.14.11-.28.11-.41s.11-.2.11-.34a.23.23,0,0,1,.12-.22.2.2,0,0,0,0-.09c.09-.05.09-.16.12-.22s.08,0,.08-.06,0-.08,0-.13,0,0,.08-.06.11-.2.14-.31.25-.14.25-.19,0,0,0,0,.13-.08.13-.17.73-.56.73-.64,0,0-.06,0,.2,0,.2-.14.17,0,.17-.11.19,0,.16-.11a.18.18,0,0,0,.12,0s.08-.05.08-.08.14-.06.17-.14,0,0,.11,0,.08-.09.11-.14.25,0,.22-.11a.37.37,0,0,0,.23-.11.3.3,0,0,0,.16,0s.09-.06.11-.09a.47.47,0,0,0,.17,0s.09-.06.11-.09.25,0,.28-.14.17,0,.25,0,.06-.05.09-.08a1.13,1.13,0,0,0,.3,0s0-.08.11-.08.2,0,.28,0,.06,0,.14-.08.23,0,.34,0,.11-.08.19-.08.25,0,.37,0,.11-.08.19-.11a1.23,1.23,0,0,1,.34,0c.08,0,0-.06.11-.06s-.06.06,0,.06.28-.14.37-.14h.86c.11-.17.33-.12.47-.12Zm22,0c.28,0,.28.12.45.12h.87c.13,0,.27.14.33.14s0-.06.06-.06,0,0,0,0a.7.7,0,0,0,.25,0c.23,0,.06.05.34.11.08,0,.25,0,.39,0s.11.08.17.08a1.46,1.46,0,0,0,.36,0s.08.08.11.08.2,0,.28,0,0,.06.11.08a.83.83,0,0,0,.28,0c.06.14.28.08.33.11.06.2.2.09.42.23a.5.5,0,0,0,.17,0s.06.09.08.09.28.14.39.14c.14.16.31,0,.31.16s0,0,0,0a.21.21,0,0,0,.13,0c.09,0,.14.14.2.14s0,.06.06.06a.2.2,0,0,0,.16.05.1.1,0,0,0,.06,0,.09.09,0,0,0-.06,0c.23.16.45.28.64.44,0,0,0,0,0,0,.33.2.44.5.67.64,0,.06,0,.2.14.2s.25.36.25.47.08.06.11,0a.35.35,0,0,0,.11.31s0,.08,0,.11a.28.28,0,0,0,.09.05c.05.09,0,.2.05.31s.08.06.08.11,0,.2,0,.31.08.08.08.14a2.17,2.17,0,0,1,0,.44s.06.06.06.09c0,.19.05.56.05.61s-.11.81-.14,1.2c0,.06-.08.06-.08.14s0,.28-.05.39,0,0-.06.06a.3.3,0,0,1,0,.16c-.08.06-.08.17-.11.25s-.11.2-.14.23-.25.33-.25.5-.08.08-.11.11-.14.14-.2.25a1.34,1.34,0,0,0-.16.22c-.06,0-.06.09-.06.14h-.11s0,.09-.06.09a.15.15,0,0,0-.14.11,4.25,4.25,0,0,1-.44.36.17.17,0,0,0-.14.11s-.06.06-.11,0-.06.08-.09.08-.11,0-.11.09,0,0,.06,0l-.2,0s0,.09-.08.09-.08,0-.14,0-.06.08-.08.08a.67.67,0,0,0-.23.14s-.11,0-.16,0-.06.08-.09.08-.08,0-.14,0-.08.08-.11.08-.22,0-.31.11a4.67,4.67,0,0,0-.5.14c-.08,0-.08.11-.14.11s-.14,0-.22,0-.11.12-.17.12-.22,0-.33,0-.06.09-.11.09-.28,0-.39,0-.12.09-.17.09-.34,0-.45,0-.14.11-.22.11h-.56a1.21,1.21,0,0,1-.36.11H99.2a.69.69,0,0,1-.25,0l0,.05a1.85,1.85,0,0,1-.39.06H97l-.41-.06-.06-.05-.22,0h-1a3,3,0,0,0-.39-.11h-.65c-.08,0-.16-.11-.25-.11s-.33,0-.5,0-.14-.09-.19-.09-.31,0-.45,0-.08-.06-.14-.09-.25,0-.39,0-.06-.09-.14-.09-.06,0,0,.06,0-.06-.05-.09a.59.59,0,0,1-.23,0s0-.11-.11-.11,0,.06,0,.06,0,0,0-.06-.17,0-.2,0,0,0-.11-.08-.14,0-.22,0-.09-.05-.14-.08-.14,0-.2,0-.08-.05-.11-.08a.42.42,0,0,1-.19,0c0-.14-.17-.08-.26-.11s-.16-.11-.25-.14a.19.19,0,0,0,0-.08.23.23,0,0,1-.22-.12.47.47,0,0,1-.17,0c-.06-.09-.11-.09-.17-.12s-.22-.27-.36-.19a.09.09,0,0,1,0-.06,1.25,1.25,0,0,1-.45-.33l-.14-.11c-.08-.06-.08-.11-.17-.09l.06,0a5.76,5.76,0,0,1-.42-.45s-.08-.11-.11-.14l-.11-.08a1.19,1.19,0,0,0-.17-.34s0,0-.06-.05a3.6,3.6,0,0,0-.16-.39s-.06-.06-.11-.11a.21.21,0,0,0,0-.12.37.37,0,0,0-.12-.19v-.22c0-.09-.11-.09-.11-.14s0-.28,0-.37-.09-.08-.09-.13v-.7a1.18,1.18,0,0,1-.08-.31,1.17,1.17,0,0,1,.08-.25v-.53a2.72,2.72,0,0,0,.11-.25v-.08c0-.12.11-.23.11-.37s.12-.22.12-.28v-.11c.14,0,.11-.19.14-.22s.11,0,.11-.08-.06,0-.06,0,.08-.11.14-.17,0-.08,0-.14.28-.3.33-.44.17-.17.14-.23a.11.11,0,0,1,.09,0,.13.13,0,0,0,0-.14.18.18,0,0,0,.12,0s0,0,0-.08l.11-.11.12-.11a.19.19,0,0,0,.14-.06s0-.06,0-.08.14,0,.16-.11,0,0,.06,0,0-.08.08-.11.11,0,.14-.14.2,0,.2-.11.36-.11.36-.17,0,0-.06,0a2,2,0,0,0,.23-.09s0-.05,0-.08.09,0,.14,0a.14.14,0,0,0,.09-.08s.16,0,.22-.11a.42.42,0,0,0,.19,0s.06-.06.06-.09a.58.58,0,0,0,.19,0s.06-.06.12-.09.25,0,.27-.14h.17c.06,0,.09-.08.17-.11s.19,0,.28,0,.08-.05.11-.08a1.24,1.24,0,0,0,.31,0s.05-.08.14-.08.22,0,.33,0,.08-.08.17-.08.25,0,.39,0,.08-.08.17-.11a1.21,1.21,0,0,1,.33,0,.58.58,0,0,0,.31,0,.06.06,0,0,0,0-.06l.2,0a4.63,4.63,0,0,0,1.25-.12Zm-96,.23,4.91,0c.05,0,.05-.06.11-.06s.08.06.14.06l4.71,0a2.55,2.55,0,0,0,.56.14h.53a2.46,2.46,0,0,0,.27.08c.14,0,.31,0,.45,0s.08.05.17.08.25,0,.39,0,.05.06.14.08.19,0,.28,0,0,.06.11.08a.87.87,0,0,0,.31,0c0,.11.25.14.3.14s.09.09.11.09a.13.13,0,0,0,.12,0c.22.05,0,.08.36.14,0,0,.05.08.08.08a.29.29,0,0,0,.14,0s.06.08.08.08c.23,0,.14.17.37.14,0,.08.11.11.16.14a1.26,1.26,0,0,0,.17.11c0,.06.09.06.17.11a.17.17,0,0,0,.17.11c0,.06.05.09.11.12s.08.11.14.11a.35.35,0,0,0,.16.14s.26.25.26.36.22.25.33.42a2.21,2.21,0,0,1,.33.67s0,.08,0,.14l.09.05a2.33,2.33,0,0,1,.08.36.07.07,0,0,0,0-.05c.05.17,0,.36.05.56s.11.14.11.22V33.1c0,.11,0,.25-.11.31v.64c0,.08-.08.11-.11.19s0,.25,0,.36-.05,0-.08.12,0,.19,0,.3-.05,0-.11.14a1.41,1.41,0,0,1-.17.5s0,0-.05.06a3.87,3.87,0,0,1-.17.39.09.09,0,0,0,0-.06.48.48,0,0,0-.05.26h-.09c-.05.11-.25.19-.25.27s0,0,.06,0-.14.11-.2.14l-.11.11s0,0-.05,0,0,.08-.06.08a1.28,1.28,0,0,1-.45.34s-.05,0-.08,0a.44.44,0,0,0-.08.11s-.06,0-.12,0-.05.08-.08.08a.27.27,0,0,0-.11,0s-.06.08-.08.08a.21.21,0,0,1-.14,0s-.09.08-.12.08-.22-.05-.25.11-.14,0-.16,0-.09.09-.11.11-.31.09-.37.12-.19,0-.28,0-.05.09-.11.09-.28,0-.36,0-.11.09-.17.09-.28,0-.42,0-.16.11-.25.11h-.5s0,0,0,.05,0-.05-.08-.05-.31.08-.45.11l-11.87,0c-.06,0-.12-.05-.17-.05H.61a.82.82,0,0,1-.22-.06V26.57H2.62C2.7,26.57,3,26.63,3.18,26.66Zm109.27-.09a2.83,2.83,0,0,0,.86.09l5,0s0-.06.09-.06,0,0,0,0a.31.31,0,0,0,.17,0,.81.81,0,0,0,.2-.06c.08,0,.08.06.11.06l4.29,0a2.69,2.69,0,0,0,.56.14h.53l.25.08c.11,0,.31,0,.47,0s.14.08.2.08.25,0,.36,0,.06.06.14.08.2,0,.31,0,.14.11.19.11.14,0,.2,0l.08.09c.06,0,.14,0,.22.05s.09.09.14.09a.59.59,0,0,0,.17,0s.08.09.11.09.28.14.39.14.06.08.09.08a.3.3,0,0,0,.16,0v.11c.09,0,.17,0,.2,0s.17.11.25.19a.13.13,0,0,0,.08,0c.06.08.17.11.23.2s.08,0,.14,0v.09c.25.22.55.5.78.72,0,.09,0,.11.14.25s.05.09.14.12,0,.27.14.25c0,.05,0,.14,0,.19a.26.26,0,0,0,.08.06c0,.05,0,.11,0,.16s.08.06.08.12,0,.14.08.27,0,.26.06.4.11.08.11.16v2.34a2.86,2.86,0,0,0-.14.79s-.05.08-.08.16,0,.2,0,.31-.06.06-.08.14,0,.14,0,.22-.06,0-.08.11,0,.12,0,.2-.12.11-.14.17v.08c-.12,0-.14.14-.14.19s-.06.06-.09.09,0,.14,0,.17-.17.19-.2.25-.11.19-.19.22,0,.08,0,.14a.08.08,0,0,1-.08,0,.12.12,0,0,0,0,.14h-.11s0,.08-.06.08a.22.22,0,0,0-.14.12c-.06,0-.22.11-.22.19s-.37.2-.37.25-.5.14-.5.23,0,0,.06,0c-.17,0-.34.11-.53.14L127,38s-.11,0-.2,0a.58.58,0,0,1-.14.12c-.08,0-.22,0-.3,0s-.06.09-.12.09a2.17,2.17,0,0,1-.36,0s0,.06-.08.06a2.84,2.84,0,0,1-.5.06c-.12,0-.2.11-.28.11h-.56c-.19.11-.33.05-.5.11l-11.88,0c-.06,0-.11-.05-.19-.05l-1.23,0V26.57ZM6.61,26.6h0Zm.25,0h0Zm32.79,0h0Zm5.1,0h0Zm5.13,0h0Zm4.07,0h0Zm62.77,0h0ZM34,26.63a7.17,7.17,0,0,0,.5.81c0,.11.36.67.36.78s.17.22.23.28,0,.08,0,.14.06,0,.09.05,0,.11,0,.17.16.11.16.17,0,0-.05,0a.26.26,0,0,0,.08.06c0,.17.2.31.25.42s0,.11.11.14a.1.1,0,0,1,0,.05L36.94,32s.06.11.09.11a.2.2,0,0,1,0,.16l.06.06a.2.2,0,0,1,.06.17.19.19,0,0,0,.08,0c0,.23.36.56.36.73s.06.08.08.08,0,.14.14.25,0,.2.12.2a.22.22,0,0,1,0,.11c.12,0,.09.17.12.22s.08.06.11,0v.2s.08.05.08.08.06.14.08.17a.15.15,0,0,0,.09,0c-.11.23.25.31.22.59l.11,0c0,.34.39.73.48,1.06a.26.26,0,0,0,.08.06l.11.22s0,.08,0,.14a2.89,2.89,0,0,0,.33.5c0,.14.11.14.14.34,0,0,.09,0,.09.05a.5.5,0,0,1,0,.17s.09.06.09.08,0,.14.11.2,0,.05,0,.14.14.16.22.22v.14l-6.61,0a1,1,0,0,0-.19-.17.29.29,0,0,0,0-.14s-.06-.05-.08-.08a.26.26,0,0,0-.12-.23s0-.25-.11-.22,0-.17-.14-.17c0,0,0,0,0-.08s-.11-.19-.17-.31l-5.54,0c-.2.28-.23.48-.4.62a.25.25,0,0,1-.11.19.42.42,0,0,1-.05.2.41.41,0,0,0-.2.36H20v-.14s.08-.06.08-.09,0-.08,0-.11.22-.33.36-.5v-.11c.06-.06.12-.17.2-.25s.08-.14.11-.2.14-.19.14-.33.14-.11.14-.2a.11.11,0,0,0,.08-.08s0-.08,0-.14a.24.24,0,0,0,.11-.19s.06-.06.09-.09.08-.14.08-.19.08-.11.14-.17a.15.15,0,0,0,0-.11s.08-.09.11-.14a.49.49,0,0,0,.05-.2l.09,0v-.11s.05,0,.08-.08A.21.21,0,0,0,22,35c.11,0,.11-.14.11-.2s.06-.05.11-.14.17-.25.2-.3a2.71,2.71,0,0,0,.17-.39.12.12,0,0,1,.11-.06v-.11c.08-.06.11-.17.19-.25s0-.17.17-.25a.1.1,0,0,0-.06,0,4.5,4.5,0,0,0,.39-.7s.06,0,.09,0a.3.3,0,0,0,0-.14c.14-.14.23-.34.37-.51v-.16s.05,0,.08,0,0-.06,0-.12a.23.23,0,0,0,.11-.19c.11-.11.14-.25.22-.33s.14-.31.23-.37.11-.14.14-.33a.08.08,0,0,1,.11,0s0-.06,0-.11.08-.06.11-.11l.25-.45a.17.17,0,0,0,0-.17c.05,0,.08-.08.11-.11a.11.11,0,0,0,.08-.08.21.21,0,0,0,0-.14.23.23,0,0,0,.11-.2c0-.05.14-.05.12-.16a4.86,4.86,0,0,0,.36-.53c0-.31.05,0,.11-.31,0,0,.08,0,.08-.06a2,2,0,0,1,.17-.36s.08,0,.08-.08,0,0,0-.09.23-.19.25-.41c0,0,.09,0,.09-.06s0-.08,0-.14.08,0,.11-.11Zm11.1.06s0,.13,0,.19a.11.11,0,0,0,.08.11,1.49,1.49,0,0,1,0,.36c0,.06.09.09.09.14s0,.2,0,.31.08.06.08.11a.74.74,0,0,1,0,.25l0,.06a4.82,4.82,0,0,0,.14.53c0,.08,0,.22.06.33s.08,0,.08.06a.7.7,0,0,1,0,.25c0,.06.06.11.09.11a1,1,0,0,1,.05.39L46,30a1,1,0,0,1,.05.39s.09.08.09.11,0,.19,0,.28.09.08.09.14,0,.19,0,.3.08.09.08.14,0,.28.14.39,0,.17,0,.26.11.11.11.19a1,1,0,0,1,0,.31l.05,0a.68.68,0,0,1,.06.34.09.09,0,0,0,.06,0,2.18,2.18,0,0,1,.05.39s.06,0,.06.08a.6.6,0,0,1,.05.31s0,0,.06,0,.11-.11.11-.19.11-.22.11-.36.11-.2.11-.34.17-.14.12-.33a1.79,1.79,0,0,0,.11-.37c0-.08,0-.13.11-.25s0-.28.11-.3a.21.21,0,0,0,0-.14,1.37,1.37,0,0,0,.11-.36c0-.14.11-.2.11-.34a1.27,1.27,0,0,0,.11-.36c0-.14.11-.2.11-.34v-.08c0-.06.06-.08.09-.14s0-.14,0-.22,0,0,0,0,0,0,0,0c.22-.11.08-.17.13-.22s.12-.2.12-.34a5,5,0,0,0,.22-.72v-.11c.14-.06.08-.25.11-.37a.76.76,0,0,0,.14-.16c0-.17,0-.11,0-.17s0,0-.06,0c.23-.11.09-.17.14-.22s.14-.34.11-.47l4.72,0a.67.67,0,0,1,.19.05c.06.11,0,.25.06.37s.08.08.08.13a4.56,4.56,0,0,1,.14.59l.08.06a.42.42,0,0,1,0,.19.46.46,0,0,0,.11.28c0,.06,0,.08,0,.17s.11.14.11.22a1.88,1.88,0,0,1,.14.61s0,0,0,0a2.1,2.1,0,0,1,.09.42s.08.09.08.14,0,.14,0,.22.08.09.11.12,0,.14,0,.22a.11.11,0,0,0,.08.08c.06.17,0,.34.14.48,0,.08,0,.19,0,.28s.08.08.08.14a4.07,4.07,0,0,1,.14.58s0,.06.06.06,0,0,0-.06c0,.14,0,.31,0,.45s.11,0,.11,0,0,0,0,0a.1.1,0,0,1,0,.06.24.24,0,0,0,.11.3.92.92,0,0,1,0,.28.06.06,0,0,0,.05,0c.06.14-.05.31.17.47.11-.11,0-.22,0-.33s.06,0,.09-.08a.86.86,0,0,1,0-.28c.05,0,.08-.06.11-.11v-.12c0-.14.11-.19.11-.33a1.65,1.65,0,0,0,.11-.36c0-.11.11-.25.11-.37a1.9,1.9,0,0,0,.11-.39v-.08c0-.08.09-.11.11-.19v-.2c0-.06.14-.17.14-.28a6.76,6.76,0,0,0,.23-.72c0-.14.11-.25.11-.39s.11-.23.11-.37V29c.14-.31.11-.2.11-.34s.08,0,.14-.3a1.65,1.65,0,0,0,.11-.36c0-.12.11-.26.11-.37a4.43,4.43,0,0,1,.23-.75v-.22h5.85a.35.35,0,0,1,.06.16c0,.17-.09,0-.14.23,0,.05,0,.16,0,.22s-.06.06-.08.08a2.54,2.54,0,0,1-.17.51s0,.05-.06.08a1.07,1.07,0,0,1-.11.28s0,.14,0,.19,0,0-.08.12,0,.19-.06.27,0,.14,0,.17-.06,0-.06.06,0,0,.06,0a.23.23,0,0,0-.14.08c0,.08,0,.22-.11.31a.3.3,0,0,1,0,.16s-.06.09-.08.11l-.11.31c0,.06,0,.2-.06.28s-.06.06-.08.11,0,.09,0,.11c-.17.06-.09.25-.14.37a.4.4,0,0,0-.12.22s0,.08-.08.11a3.12,3.12,0,0,1-.14.5s0,.06-.08.09a.64.64,0,0,1,0,.22s-.06,0-.08.11,0,.2-.06.25-.11.06-.06.2l-.05,0s0,0,.05,0a.28.28,0,0,0-.13.08.32.32,0,0,1,0,.17c0,.06-.06.06-.09.14s0,.11,0,.17-.06.08-.09.11a.4.4,0,0,1,0,.19s-.05,0-.08.12,0,.19,0,.25-.06.05-.09.11a.12.12,0,0,1,0,.14c-.14,0-.14.19-.11.28s-.08.05-.11.14,0,.11,0,.16-.06.09-.08.12a.44.44,0,0,1,0,.19s-.06,0-.08.11,0,.2-.06.28,0,0-.06.06-.05.14-.11.25,0,.19-.05.3-.06,0-.09.06,0,.08,0,.17,0,0,.06,0a.23.23,0,0,0-.14.08,2.26,2.26,0,0,0-.11.28s0,.19-.06.28,0,0,0,0a2.72,2.72,0,0,0-.11.28c0,.06,0,.2-.06.25s0,0-.05.06,0,.08,0,.14-.09.05-.12.14a.44.44,0,0,0,0,.16c-.09.14-.12.31-.23.48H53.62c0-.36-.06-.17-.11-.31s0-.17,0-.22-.11-.31-.2-.48,0-.14,0-.22-.06-.08-.09-.08,0-.09,0-.14-.11-.17-.14-.22,0-.23,0-.28l-.08-.14s0,0,0-.2c0,0-.08,0-.08-.11s0-.14,0-.22-.08-.09-.08-.14,0-.14,0-.23,0-.05-.06-.08.06-.31-.16-.33c0-.06,0-.09,0-.17s-.11-.14-.13-.2a.92.92,0,0,0,0-.28c0-.05-.09-.05-.09-.11s0-.14,0-.22,0-.06-.06-.08a2.57,2.57,0,0,1-.06-.28.14.14,0,0,0,0-.09s0-.19-.06-.25-.08-.08-.08-.14,0-.28-.11-.39a.32.32,0,0,0-.17.2s0,.14,0,.19,0,.06-.08.14,0,.2-.06.25,0,.06-.08.12,0,.08,0,.11a.24.24,0,0,0-.11.3c0,.06-.09.06-.11.14s0,.11,0,.17-.06.08-.09.11a1.69,1.69,0,0,1-.11.31s0,.14,0,.17-.09.25-.12.33-.08.25-.11.34-.08.11-.08.19a.24.24,0,0,1-.09.17s0,0-.05,0a.27.27,0,0,1,0,.14s0,0-.08.11,0,.2-.06.28,0,0-.05.06a1.24,1.24,0,0,1-.12.28s0,.14,0,.22a.4.4,0,0,0-.11.14.24.24,0,0,1,0,.22c-.23.17-.25.87-.48.87H43.58c-.06,0-.14-.11-.2-.14a.5.5,0,0,0,0-.17s-.09-.05-.09-.11,0-.14,0-.2a.33.33,0,0,0-.08-.11.3.3,0,0,0,0-.16.14.14,0,0,0-.05-.09c-.06-.14-.06-.3-.17-.42s0,0,0,0a.12.12,0,0,0-.06-.11s-.05-.06-.08-.09V36.7a.17.17,0,0,0-.08-.12,2.33,2.33,0,0,1-.06-.25s0,0-.06-.08,0-.14-.05-.22-.06-.09-.09-.12a.44.44,0,0,0,0-.16s0-.06-.06-.09,0-.19-.06-.25a.26.26,0,0,0-.11-.16c.09-.14-.19-.26-.11-.39a.17.17,0,0,0-.08-.12,4.29,4.29,0,0,0-.34-.94c0-.06,0-.17,0-.26s-.06,0-.09-.08,0-.05,0-.14a.14.14,0,0,0,0-.11s-.06-.06-.09-.08a.68.68,0,0,0,0-.2s0,0-.06,0c0-.17-.11-.37-.17-.59,0,0,0-.08-.08-.11a2.85,2.85,0,0,0-.14-.5s-.06-.06-.11-.06,0,0,0,0,0,0,0-.05c0-.34-.08-.25-.11-.28a.46.46,0,0,0,0-.2s0,0-.06,0-.14-.39-.16-.59c0,0-.06-.08-.09-.11a.34.34,0,0,0,0-.17.79.79,0,0,0-.11-.14s0-.11,0-.19,0-.06-.11-.09a.37.37,0,0,0,0-.25s-.05,0-.08-.08a.46.46,0,0,0,0-.2s0,0,0-.05-.11-.36-.17-.59c0,0-.06-.08-.08-.11a.36.36,0,0,0,0-.17c-.25-.08,0-.36-.22-.41a.69.69,0,0,0,0-.25s-.06-.06-.09-.09-.11-.31-.14-.5a.1.1,0,0,0-.05-.08,1.09,1.09,0,0,1,0-.17c0-.11,0-.08.14-.11Zm31.14,2.64c.06,0,0,.06.11.06s0-.06,0-.06a.18.18,0,0,1,.14.09,1.33,1.33,0,0,0,.44,0c.06,0,.09.08.17.11a.66.66,0,0,0,.25,0s0,0-.05.08a2.23,2.23,0,0,1,.36,0,.09.09,0,0,0-.06,0,1.09,1.09,0,0,0,.25.06c0,.11.14.11.23.11s.05.08.14.11a.15.15,0,0,1,0,.11c.19,0,.11,0,.11.11s.22,0,.11.12c.19.08.25.27.44.47,0,0,0,.08,0,.14.28.06-.05.39.23.47a3.44,3.44,0,0,0,0,.45c0,.06.09.11.09.17s-.06.08-.06.16.06,0,.06,0v.53c0,.09-.06.11-.09.2s0,.42,0,.61-.09.08-.11.14a.81.81,0,0,1,0,.22.15.15,0,0,0-.12.11s0,.14,0,.23a3.76,3.76,0,0,0-.23.36,2.87,2.87,0,0,1-.39.36s0,.09-.05.09-.09.22-.23.14c-.05.11-.19.14-.27.22s-.14,0-.17,0-.06.08-.11.08-.14,0-.23,0-.08,0-.14.08-.36,0-.47.14H74.25c-.2-.19-.33-.08-.5-.14s-.09-.08-.14-.08-.17,0-.25,0a.06.06,0,0,0,0,0,1.67,1.67,0,0,1-.3-.08c-.14-.06-.28-.2-.36-.2h-.06s0,0,0-.05-.25-.14-.34-.23-.28-.39-.39-.44-.11-.17-.14-.28,0-.06-.11-.08V34l-.11-.14c0-.05,0-.14,0-.19s-.08-.12-.08-.17V31.7a.47.47,0,0,0,.11-.3.22.22,0,0,1,.11-.23c0-.11.09-.27.11-.39.2-.25.39-.61.59-.72a.92.92,0,0,1,.31-.17s0-.05,0-.08a1.67,1.67,0,0,0,.5-.25.17.17,0,0,0,.17,0c0-.2.31-.09.42-.11s.16-.09.25-.12Zm22,0c.19,0,.17,0,.17.09s.36,0,.55,0c0,0,.06.09.12.09a.61.61,0,0,0,.22,0c.14.13.28,0,.39.19s.36.22.53.28a.09.09,0,0,0-.06,0l.2.08a.09.09,0,0,0-.06,0c.2.11.23.22.36.33a.51.51,0,0,1,.06.2s.06,0,.11,0,0,0,0,.11.14.22.23.36,0,.28.14.36v1.85c-.14.05-.11.27-.14.44s-.06,0-.09.06,0,.11,0,.16a.94.94,0,0,1-.14.34,2.46,2.46,0,0,1-.36.47,1,1,0,0,1-.36.34s-.08,0-.14,0-.39.25-.53.33-.14,0-.22,0a.14.14,0,0,0-.11.08c-.14.06-.42,0-.51.14H96.19c-.19-.19-.33-.08-.5-.14s-.08,0-.14-.08-.17,0-.25,0,0-.06-.08-.08a.46.46,0,0,1-.2,0s0-.06-.08-.08a.34.34,0,0,1-.17,0,.09.09,0,0,0,.06,0c-.14-.08-.28-.17-.39-.22a2.74,2.74,0,0,1-.53-.62c0-.05,0,0,0,0a.11.11,0,0,0-.11,0,3.57,3.57,0,0,1-.28-.66c0-.09.06,0,.06,0s-.09-.11-.14-.14V31.56c0-.11.05-.11.14-.16a.1.1,0,0,0-.06,0c.06-.25.28-.64.28-.7s.22-.08.11-.16c.09-.09.2-.12.2-.2s.11-.11.22-.17a.79.79,0,0,1,.48-.36s0-.06,0-.08a.34.34,0,0,0,.17,0s0-.06,0-.08a.69.69,0,0,0,.23,0s0-.06.11-.09.22,0,.33,0,.17-.09.25-.12Zm-87.36.14c.12.2.31,0,.48.12s.08.08.11.08a.72.72,0,0,0,.25,0,.37.37,0,0,0,.25.11s.08.08.11.08a.21.21,0,0,0,.14,0c0,.06.14.06.2.11s0,.08.05.11a.06.06,0,0,0,.09,0,.3.3,0,0,1,0,.14h.17c.09.14.25.23.31.45,0,0,0,0,0,0s.09.17.14.25.12.08.12.14h0a.24.24,0,0,0,0,.07c0,.06.08.09.11.14a1.27,1.27,0,0,0,0,.28s.09.06.09.08a3.13,3.13,0,0,1,0,.53s.05,0,.05.06-.05.31-.05.36.05,0,.05.11,0,.06-.05.09,0,.44,0,.5a.76.76,0,0,1-.06.25s0,0-.06,0a1.83,1.83,0,0,0,0,.33c0,.06-.09.09-.11.17s0,.14,0,.2-.2.16-.2.33-.19.17-.25.22l-.11.11c-.17.06-.11.12-.31.14,0,0,0,.09-.05.14a.88.88,0,0,0-.14,0c-.06,0-.06.08-.11.11s-.17,0-.2,0-.08,0-.14.08-.22,0-.33,0-.11.11-.2.11h-.53a2.33,2.33,0,0,1-.39.11H6.5V29.47Zm110.08,0c.09,0,.14.09.23.09a1.23,1.23,0,0,0,.33,0s.08.08.11.08a.74.74,0,0,0,.25,0s.09.08.12.08a.3.3,0,0,0,.16,0s.06.08.09.08a.3.3,0,0,0,.16,0c.06.11.2.14.25.22a.18.18,0,0,0,.12,0,5.21,5.21,0,0,0,.47.47,0,0,0,0,1,0,0,.17.17,0,0,0,0,.07c0,.05.08,0,.08,0s.12.14.14.22.06.14.11.22,0,.28.12.34.08.28.11.47a3.51,3.51,0,0,1,0,.53,2.75,2.75,0,0,1-.09.67,4,4,0,0,0,0,.61s-.09.06-.09.14,0,.14,0,.23,0,0-.08.05c0,.36-.19.22-.19.36s-.14.2-.2.28-.06,0-.08,0,0,.08-.06.08-.08,0-.14,0v.06c0,.05,0,.05,0,.05-.23,0-.2.12-.34.12s-.05.08-.11.11-.14,0-.22,0-.09.08-.14.08-.2,0-.28,0-.14.11-.22.11H121c-.14,0-.36.11-.41.11s-.14,0-.14-.08-.06,0,0,.08h-3.63V29.47ZM30.53,30.78a.06.06,0,0,0-.05,0s.08,0,.11.06a.09.09,0,0,0-.06,0c.06,0,.14.22.17.39s.08,0,.08.05,0,.2.06.28.05,0,.05,0,0,.08,0,.14.06.05.08.11,0,.11,0,.17.09,0,.11.25c0,0,.14.17.12.28a.2.2,0,0,1,.11.11s0,.08,0,.14.08,0,.08.11-.06-.06.11.25c0,0,0,.25.11.31a3.08,3.08,0,0,1,.34.72c0,.06,0,0,0,.09H28.83V34c.14-.25.14-.08.14-.28a1.35,1.35,0,0,0,.11-.28c.06,0,.08-.22.11-.25a.53.53,0,0,0,.11-.25c.09-.08.09-.25.14-.31s.09,0,.11-.08v-.11c0-.06.06-.08.09-.11a.21.21,0,0,0,0-.14c0-.09.14-.11.11-.25s.11-.28.19-.39a.34.34,0,0,0,0-.17s.08-.06.08-.08a.39.39,0,0,1,.14-.25c0-.23.12-.28.17-.28A.71.71,0,0,1,30.53,30.78ZM92.35,41c.11,0,.22,0,.33,0s0,.06.11.08.09,0,.11,0,.11.08.17.14.17.2.22.25a.36.36,0,0,1,.06.22c0,.23,0,.2-.14.37s-.11.08-.14.14-.33.11-.33.19,0,0,.05,0c-.22,0-.61.06-.7.06l-.5-.06s-.08-.06-.11-.08a.36.36,0,0,1-.17,0A2.44,2.44,0,0,1,91,42v-.51a4.07,4.07,0,0,1,.36-.36c.14-.05.14,0,.23-.11a.64.64,0,0,0,.22,0s-.06,0,0,0,0,.06,0,.06.23-.08.28-.08S92.29,41,92.35,41Zm23.44,0s0,.06.12.08.08,0,.11,0a.25.25,0,0,0,.22.11c0,.06,0,.14.14.11,0,.31.11.2.11.42a.73.73,0,0,1,0,.2,1,1,0,0,1-.39.39,1.7,1.7,0,0,0-.23.11l-.58.11c-.09,0-.37-.08-.56-.11s-.17-.08-.22-.11-.17-.09-.17-.14-.11-.14-.2-.2v-.53a4.13,4.13,0,0,0,.37-.36c.05,0,.22,0,.28-.11h.75s0-.06,0-.08C115.54,41.05,115.68,41,115.79,41Zm-8.94,0,0,6.67a.57.57,0,0,1,.09.28s.08,0,.14.05,0,.08.11.11a.61.61,0,0,0,.25.06h6.3c.11,0,.22,0,.31-.06a.31.31,0,0,0,.16-.22.36.36,0,0,0,.11-.28c0-.08,0,0,0-.08s0,0-.09,0,0,0-.11,0,0,0-.05,0a2.28,2.28,0,0,1-.78,0s-.06,0-.09,0a1.46,1.46,0,0,0-.36,0,1.43,1.43,0,0,1-.34-.06s0,0-.08,0a2.09,2.09,0,0,1-.53-.12c-.08,0-.19,0-.28,0s0-.06-.11-.09-.14,0-.22,0-.2,0-.25-.11-.14-.14-.23-.11a2.39,2.39,0,0,0-.33-.25,1.32,1.32,0,0,1-.34-.33A.23.23,0,0,0,110,46c0-.06,0-.14,0-.17s-.08-.11-.08-.17v-.61l.08-.17s0-.08,0-.14.06,0,.09-.08a.3.3,0,0,0,0-.14.41.41,0,0,0,.14-.2.25.25,0,0,0,.12,0s0-.06,0-.09.11-.08.17-.11a.36.36,0,0,0,.17-.14s.08,0,.11,0,.08,0,.11-.11.14,0,.28-.11a.64.64,0,0,0,.22,0s.06-.08.14-.08a1.23,1.23,0,0,1,.33,0c.06,0,.12-.08.2-.08a5.91,5.91,0,0,0,.67-.09,3.16,3.16,0,0,1,1,0,4.56,4.56,0,0,1,1,0c.05,0,.08.09.16.09h.62c.19.11.44,0,.67.11,0,0,0,.08.14.08s.33,0,.5.17a.18.18,0,0,1,0,.11l.06,3.76s.06.06.08.06.23.11.23.17,0,0-.06,0a.7.7,0,0,0,.39.09h3.07c.08,0,.17,0,.25-.06a.11.11,0,0,0,.08-.11h.06a1.35,1.35,0,0,0,.14-.22V41H124s.25.11.11,0-.08,0,.06,6.89c-.06.16-.11.33-.17.47s0,0,0,.06-.17.22-.14.36c-.11,0-.09.06-.14.08s-.06,0-.11,0-.06.08-.09.08-.08,0-.11.14c0,0-.28,0-.25.09s-.08,0-.14,0-.08.08-.11.08-.14,0-.2,0-.11.11-.16.11-.23,0-.34,0-.25.11-.33.11h-5c-.11,0-.25-.14-.34-.14s-.14,0-.22,0-.11-.11-.17-.11a4.67,4.67,0,0,1-.5-.14.22.22,0,0,0-.2-.09c-.08,0-.11,0-.22.09a1.63,1.63,0,0,1-.44.14s0,.08-.06.08,0-.06,0-.06-.08.09-.11.09c-.2.05-.36-.09-.53.08,0,0,0,.06-.11.06h-7.58c-.26-.23-.45-.11-.62-.14a.71.71,0,0,0-.33-.14c0-.08-.2-.08-.28-.11s-.14-.09-.2-.11-.14-.09-.19-.12a.5.5,0,0,0-.06-.08,1.28,1.28,0,0,1-.3-.28s-.06-.25-.14-.22,0-.14,0-.17-.09-.05-.09-.11,0-.47,0-.53v-6.5c0-.08,0-.08.16-.11Zm22.3.09v8.5h-2.82V41H129C129.09,41,129.15,41,129.15,41.05Zm-16.34,0s.11,0,.14,0,.11.11.2.11.11.25.22.23V42a2.42,2.42,0,0,1-.39.31s-.17,0-.22.11-.26-.06-.28.11c0,0,0-.08,0-.08s-.22.08-.31.08a2.55,2.55,0,0,0-.28-.08s0,.05,0,.05,0,0,0-.05-.17,0-.2,0,0-.06-.11-.08-.08,0-.14,0a1.6,1.6,0,0,1-.39-.39s0-.14,0-.2v-.11c0-.14.2-.31.28-.42a2.43,2.43,0,0,0,.28-.14v0a10.85,10.85,0,0,1,1.14,0C112.7,41,112.73,41.05,112.81,41.07Zm-36.55,0c.08,0,.11.06.19.08s.14.06.17,0a.81.81,0,0,0,.2.14,1.59,1.59,0,0,1,.33.36.32.32,0,0,1,.06.17.51.51,0,0,1-.06.2,1.53,1.53,0,0,1-.36.36,1.46,1.46,0,0,1-.2.11s-.14,0-.17,0-.11.14-.19.14h-.64c0-.11-.28-.14-.34-.17s-.16-.08-.22-.11,0-.14-.08-.08a.89.89,0,0,0-.17-.17c0-.08-.08-.22-.08-.31s.08-.25.11-.36a.09.09,0,0,0,0,.06s.08-.12.11-.17a.08.08,0,0,0,0,.05.17.17,0,0,0,.06-.11.28.28,0,0,0,.2-.14c.14,0,.22-.08.36-.11Zm3.15,0s0,.06.14.08.14,0,.17,0a.21.21,0,0,0,.22.11c0,.09,0,.09.11.14a.31.31,0,0,0,.17.12c0,.61,0,.66,0,.64s-.11.11-.14.11-.08.05-.17.11a2,2,0,0,1-.19.11c-.09,0-.31,0-.34.17h-.64s-.11-.11-.17-.14-.19,0-.3,0a.06.06,0,0,0,.05,0c-.19-.05-.16-.22-.36-.16a.09.09,0,0,0,.06,0,.38.38,0,0,0-.14-.14c0-.08,0-.22,0-.31V41.8c0-.11.08-.2.11-.34s.2-.05.17-.14,0,0,.08,0,.11-.08.11-.14a.46.46,0,0,0,.2,0s.08,0,.14-.08H79A1.65,1.65,0,0,1,79.41,41.1Zm-63.6.39s.11.09.19.09,0-.06.06-.06,0,0,0,0,.3,0,.47,0,.09.08.17.08a1.23,1.23,0,0,0,.33,0s.09.08.12.08a.69.69,0,0,0,.25,0c.05.05.16.14.25.11s.25.14.36.17a.09.09,0,0,0-.06,0,.21.21,0,0,0,.14,0s.09.08.12.08.08,0,.08,0a.56.56,0,0,0,.17.11.74.74,0,0,0,.16.12s.09.16.11.11,0,.08.06.11a2.81,2.81,0,0,0,.31.25.28.28,0,0,0,.14.11s0,.08,0,.14.11.17.16.22a.06.06,0,0,0,.09,0v.23c.11,0,.08.16.11.22a.09.09,0,0,0,.06,0c0,.14-.06.42.16.5a.54.54,0,0,1,0,.22,1.66,1.66,0,0,0,.09.37,2.24,2.24,0,0,1,0,.55c0,.06,0,.37,0,.53s-.06.48-.09.67,0,.06-.11.17a3.12,3.12,0,0,1-.14.5c-.11.06-.08.17-.11.22s-.06.06-.08.09c0,.25-.23.25-.23.44s-.19.12-.19.17,0,.06.05.06-.22.05-.14.08a7.52,7.52,0,0,0-.64.47s-.05,0-.11,0,0,.09-.08.09a.29.29,0,0,0-.2.11c-.11,0-.28.11-.42.14s-.08.08-.11.11-.14,0-.22,0-.11.11-.17.11-.3,0-.42,0-.11.11-.19.11H14c-.25-.17-.45-.08-.62-.14s-.08-.06-.14-.08-.19,0-.28,0,0-.06-.27-.14c0,0-.06,0-.09-.06a1.33,1.33,0,0,1-.19-.05.43.43,0,0,0-.23-.11c0-.09-.16-.09-.22-.2a.29.29,0,0,1-.14,0,.13.13,0,0,0,0-.08.17.17,0,0,1-.11,0c-.14-.17-.36-.39-.53-.58a.12.12,0,0,1-.08,0s0-.11,0-.16a2.27,2.27,0,0,0-.42-.59,2.11,2.11,0,0,0,0-.28c0-.08-.09-.08-.09-.14s0-.22,0-.28-.09-.11-.09-.16v-1.9a1.27,1.27,0,0,0,.11-.36,1.65,1.65,0,0,0,.11-.36v-.06c.09-.2.12-.11.12-.25s.08-.06.11-.11a.17.17,0,0,0,0-.11c.11-.09.08-.12.11-.2s0,0,.08,0,.14-.08.14-.14-.06,0-.06,0,.23-.28.37-.31,0-.06,0-.08.19-.17.27-.23.17,0,.17-.11a.36.36,0,0,0,.17-.11c.14,0,.14,0,.22-.11s.25,0,.22-.14a.46.46,0,0,0,.2,0s.06-.08.11-.08-.05,0,.36-.11c.09-.06.23,0,.34,0s.05-.08.14-.08h.53a1.87,1.87,0,0,1,.86-.12A3.69,3.69,0,0,1,15.81,41.49Zm45.53,0c.08,0,.2.09.25.09s.11,0,.11-.06v0c.17,0,.34,0,.5,0s.12.05.2.08.2,0,.31,0,0,.05.11.08.14,0,.19,0,.12.11.17.11.08,0,.11,0,.11.11.17.14a.77.77,0,0,0,.19.11c.23.22.45.47.65.67a.06.06,0,0,0,0,0,.47.47,0,0,1,.06.19l.08.06s0,.25.11.22,0,.11,0,.17.11.08.11.17,0,.11,0,.14a1.48,1.48,0,0,1-.48,0s0,.06-.08.06,0-.06-.06-.06-.16.09-.25.09a3,3,0,0,1-.42,0s0,.06,0,.06,0-.06-.06-.06a.38.38,0,0,0-.19.09c-.23.14-.51,0-.76.11a.59.59,0,0,1-.22,0c-.08,0-.17,0-.17,0s0-.06-.08-.09a.94.94,0,0,0-.39-.47v0c0-.08-.14-.08-.23-.08-.05-.22-.3-.08-.5-.14a.3.3,0,0,0-.16-.08c-.09,0-.09,0-.09,0s0,0-.39,0l-.19.08c-.09.06-.23,0-.37,0a.21.21,0,0,1-.11.08c0,.06-.14,0-.19.06s-.17.11-.25.19,0,0-.06,0-.25.2-.25.36-.2.23-.25.37,0,.33-.11.47v1.23c.11.14,0,.41.11.55l.08.09s0,.11,0,.16.11.12.14.17h.08l0,.06c.14.08.19.28.36.3s.06,0,.06.09.41.11.55.25h1.54c0-.14.25-.08.36-.14s.08-.06.11-.08a.46.46,0,0,0,.2,0,.14.14,0,0,0,.08-.09.5.5,0,0,0,.17,0s0-.06,0-.09.09,0,.11,0v-.59c-.22-.17-.16-.11-.27-.11l-1.68,0V45h4.46l0,3.26c0,.08,0,.17-.08.22s-.42.14-.45.28-.08,0-.11,0-.08.09-.11.11-.2,0-.25.11-.17,0-.23.12a.44.44,0,0,1-.16,0s-.09.09-.11.09a.46.46,0,0,1-.2,0s-.08.08-.11.08-.25,0-.31.14-.14,0-.19,0-.17.08-.25.11-.34,0-.45,0-.19.11-.28.11h-1s0,.06-.06.06,0-.06-.14-.06H59.14c-.09,0-.14-.08-.23-.11s-.27,0-.41,0-.09-.06-.14-.08-.2,0-.31,0-.19-.09-.28-.14-.08-.06-.11-.08a.29.29,0,0,1-.14,0c-.06-.11-.17-.09-.22-.11s-.17-.09-.22-.2a.33.33,0,0,1-.15,0,.17.17,0,0,0-.19-.11.09.09,0,0,0,.06,0c-.2-.19-.59-.5-.59-.58s-.14-.2-.14-.22,0-.09-.11-.12,0-.14,0-.16c-.08-.17-.08-.12-.08-.2s-.09-.11-.14-.14,0-.25-.08-.22,0-.25-.06-.36-.08-.12-.08-.17V44.67c0-.08,0-.11,0-.17a.09.09,0,0,0,.09-.08v-.08c0-.12.11-.23.11-.37s0-.11,0-.16a2.74,2.74,0,0,0,.39-.59s.08-.17.14-.14a2.52,2.52,0,0,1,.61-.61.11.11,0,0,0,0-.09.45.45,0,0,0,.14,0s.05-.06.05-.09c.17-.08.28-.08.36-.22s.23,0,.26-.14h.11c.08,0,.11-.11.19-.11s.14,0,.2,0,.08-.06.11-.08a1.46,1.46,0,0,0,.36,0c.06,0,.09-.08.17-.08h.61a2.36,2.36,0,0,1,1-.12A6,6,0,0,1,61.34,41.49Zm-58.47.09v2.59s-.08,0-.08.11,0-.06,0,0,0,0,0,0,0,0,0,0l3,0,.06,0-.08-.09V41.58H8.73l.08.08v7.89H5.86v-3l.08-.09a.27.27,0,0,0-.11,0l-3,0s0-.06,0,0,0,0,0,0,0,.08.08.08v3H0v-8Zm21.41,0v5.93l.12.12h4.4v1.92H21.41V41.69a.19.19,0,0,1,.14-.11Zm10.21,0c.28,0,.56.08.84.08a1.46,1.46,0,0,1,.36,0c.06,0,.06.05.14.08s.19,0,.31,0,0,.14.33.11c0,.17.22.14.31.17a.09.09,0,0,0-.06,0,.3.3,0,0,0,.2,0,.21.21,0,0,0,.14.11s0,.09.08.09a.28.28,0,0,0,.14,0c0,.12.08.12.11.14a3.58,3.58,0,0,0,.33.34l.12.11a3.22,3.22,0,0,0,.19.33h.09v.23l.05,0a.2.2,0,0,1,.06.17.26.26,0,0,0,.08.06.29.29,0,0,1,0,.27s0,.09.08.09c.06.17,0,.36.06.53s.11.11.11.19V46.4c-.17.25-.08.45-.14.64,0,0-.06,0-.08.11s0,.2,0,.28-.06,0-.11.08a.27.27,0,0,1,0,.14s-.06.06-.08.09,0,.14,0,.17H38c-.05.11-.14.16-.17.25a2.19,2.19,0,0,1-.25.33s-.11.06-.16.11-.06.06-.09.06a.15.15,0,0,0,0,.11.08.08,0,0,0-.08,0c-.08.11-.19.14-.28.22a.41.41,0,0,0-.17.12,1,1,0,0,0-.44.19c0,.06,0,0,0,0a1.44,1.44,0,0,0-.53.14c-.16.05-.36,0-.47,0s-.11.11-.19.11H30.08s-.08-.06-.08-.11V41.69c.06-.06.11-.11.17-.11Zm8.62,0v8a21.79,21.79,0,0,1-2.88,0h.06l-.17-7.86c.06-.11.11-.09.2-.11Zm4.48,0a.81.81,0,0,1,.26.11c0,.08.14.22.22.22s.11.17.14.22a3.58,3.58,0,0,0,.28.37h.08s0,0,0,0,.09.14.14.17v.05s.25.31.36.31,0,0,0,0a.24.24,0,0,0,.14.19.49.49,0,0,0,.22.26l.11.11s.06.11.06.16l.08.06a.46.46,0,0,0,.23.25c.05,0,.14.34.3.36a.06.06,0,0,0-.05,0c.08.08.14.17.22.2a1.26,1.26,0,0,0,.45.55.89.89,0,0,0,.36.48s-.06.05.11.14c0,0,0,0,0-.09s-.06,0-.06-.08V41.6H53.9v8H51.22A1.17,1.17,0,0,0,51,49.3a.82.82,0,0,0-.34-.45s0-.08-.11-.11-.08-.25-.16-.19a.07.07,0,0,0,0-.09c-.06-.08-.09-.16-.2-.19l-.11-.11a.91.91,0,0,0-.36-.48c-.06-.14-.09,0-.09-.14a1.2,1.2,0,0,0-.28-.39s-.08,0-.11,0-.08-.14-.14-.23,0-.11-.14-.11a.09.09,0,0,0,.06,0,1.07,1.07,0,0,0-.25-.22c-.11-.17-.25-.5-.45-.58a1.54,1.54,0,0,0-.28-.45l-.08,0a.11.11,0,0,0,0-.09l-.06-.05a.09.09,0,0,0-.08.08.14.14,0,0,0,.08.14l0,4h-2.7c-.06,0-.08-.08-.14-.08s0,0,.08-.09V41.74s0,0,0,0,0-.08,0-.11l.14,0ZM15.75,43.44c.06.17.17.06.31.12s0,0-.06,0a1,1,0,0,0,.26.06s0,0,.13.11a.86.86,0,0,1,.31.36.23.23,0,0,1,.06.17s0,0,0,0,0,.14,0,.23.14.16.14.25v1.45c0,.11-.14.19-.14.28s0,.19,0,.3,0,.06-.08.09a.5.5,0,0,1-.14.28,2.28,2.28,0,0,1-.22.22.29.29,0,0,0-.14.11c-.06,0-.17,0-.23.11s-.25,0-.39.06,0,.08-.11.08h-.75c-.11-.14-.36-.11-.45-.14a3.48,3.48,0,0,1-.55-.36,2,2,0,0,0-.26-.31.44.44,0,0,0,0-.16s-.06-.09-.09-.12a.9.9,0,0,0-.05-.36s-.06,0-.06-.08V45c.11-.06.09-.25.11-.34V44.5s.09-.11.09-.14a1.13,1.13,0,0,0,0-.14c.09,0,.12-.16.12-.19l.39-.36a.2.2,0,0,0,.19-.11c.09,0,.22,0,.31-.12Zm77.15.09c.09,0,.23,0,.34,0s.05,0,.14.08.14,0,.19,0,.2.08.28.11a.31.31,0,0,0,.22.11c.09.17.2.17.34.25s.14.11.17.11a.85.85,0,0,0,.25.25c0,.09,0,.09.14.09s0,.16.11.22a0,0,0,0,1,0,.06.54.54,0,0,1,.25.47c0,.06.08.08.08.11s0,.11,0,.17a.85.85,0,0,0,.11.14,2.17,2.17,0,0,0,0,.44l.06.06c0,.14,0,.33,0,.39a1.88,1.88,0,0,1,0,.33,1.31,1.31,0,0,0-.09.17c0,.06,0,.2,0,.28s-.08.11-.14.2,0,.14,0,.19a.11.11,0,0,1-.08.11.46.46,0,0,1,0,.2l.08.08.09-.08h3c.12,0,.2,0,.28-.06s.06,0,.06-.11.11-.11.22-.14V43.56h2.85l0,4.46s0,.11,0,.11-.06,0-.09.08c0,.22-.25.34-.22.56a.09.09,0,0,1-.08,0s-.06.09-.09.11-.11,0-.11.14h-.14s0,.09-.08.09-.06,0-.11,0-.06.09-.09.09a1.34,1.34,0,0,0-.25.11c-.08,0-.3,0-.33.14s-.25,0-.36,0a1.9,1.9,0,0,0-.34.11l-23.09,0c-.16,0-.33,0-.5-.06s-.08-.08-.16-.08,0,.05,0,.05,0-.05-.06-.08a.54.54,0,0,1-.22,0c-.08-.14-.22-.11-.31-.14s0-.06,0-.06,0,.06,0,.06,0-.06,0-.08a.29.29,0,0,1-.14,0c-.11-.14-.17-.06-.25-.2a.29.29,0,0,1-.14,0l-.17-.11a1.9,1.9,0,0,0-.47-.47.2.2,0,0,0,0-.11c-.08-.14-.19-.2-.19-.39s-.06-.09-.12-.11,0-.26,0-.34-.08-.11-.08-.17V46.2c0-.11.13-.22.11-.33v-.08a2.59,2.59,0,0,1,.22-.45c0-.17.2-.25.2-.36s0,0-.06,0a.08.08,0,0,1,.08,0c.09-.25.39-.45.53-.62,0,0,.09,0,.11,0s.06-.06.06-.09.17,0,.17,0,0,0-.06,0,.22,0,.28-.17c0,0,.08,0,.14,0a.17.17,0,0,0,.14-.11s.08,0,.14,0,.08-.08.17-.11.19,0,.27,0,.06-.08.14-.08.28,0,.42,0a.9.9,0,0,1,.25-.08H79a3.3,3.3,0,0,0,.34.11h.5a1.54,1.54,0,0,1,.19.08c.09,0,.23,0,.34,0s.14.11.19.11.12,0,.17,0a.12.12,0,0,1,.11.11v4.07a2.09,2.09,0,0,0,.17.14l.08-.08h3.29c.14-.09.37,0,.45-.17V44.84h2.73c.14,0,.14.11.14.25s-.11.53-.14.78c0,0,0,.06.09.06s.22-.2.25-.28.08-.06.08-.12a.32.32,0,0,0,.22-.25.11.11,0,0,1,.09,0,.2.2,0,0,0,0-.14l.11-.11.12-.11s.11-.08.16-.11a.61.61,0,0,0,.2-.17s0,0,0,.06.16-.17.19-.25.17,0,.17-.12a1.65,1.65,0,0,0,.47-.25s.06,0,.09-.11a.29.29,0,0,0,.22-.11h.11c.06,0,.11-.11.17-.11s.19,0,.28-.11a.92.92,0,0,0,.28,0s0-.08.13-.08a.88.88,0,0,1,.28,0s0-.06.06-.06-.06.06,0,.06.08-.06.16-.09a2.77,2.77,0,0,1,.62,0A2.15,2.15,0,0,1,92.9,43.53Zm-58.49,0c0,.13.22.08.36.11s.14.11.22.11.25.25.34.36a2.26,2.26,0,0,0,.11.22,1.23,1.23,0,0,1,.11.34,6.37,6.37,0,0,1,.06.95l0,.94c-.06.12-.09.26-.14.39s-.11.09-.2.17l.06.06c-.2,0-.08,0-.08.11s-.14.08-.2.14-.08,0-.14,0-.05.08-.11.11a1.11,1.11,0,0,0-.45,0c-.08,0-.14.08-.19.08s-.09,0-.11-.08-.06,0,0,.08a8.92,8.92,0,0,0-1,0V43.56Zm79.91,1.14v1.73h-.59c-.22-.11-.47-.14-.7-.25,0-.06-.16-.12-.19-.14s0,0,0-.06-.09,0-.11,0,0,0,0-.06,0,0-.11,0a2.46,2.46,0,0,0,0-.47v-.12c0-.05,0-.14,0-.22a.73.73,0,0,0,.2-.22c.14,0,.14-.09.19-.14ZM78,45v3.21a.19.19,0,0,0-.14-.06h-.64c-.08,0-.19,0-.28-.06a0,0,0,0,0,0,0c-.08,0,0,0,0,0s0-.08-.05-.11a.47.47,0,0,1-.17,0c-.06-.12-.09-.06-.14-.12s0-.22-.11-.19a1.51,1.51,0,0,0-.06-.36l0,0V45.87a.73.73,0,0,0,.11-.25v-.14c.11-.11.14-.28.25-.39s.14-.06.19-.14Zm14.17,0s0,.08,0,.08a.11.11,0,0,0,.09,0,1.34,1.34,0,0,1,.3.36c.06.09,0,.31.14.34,0,.22.12.61.12.67s-.09.44-.12.67c0,0-.05,0-.11.08a.1.1,0,0,0,.06,0c0,.08-.11.14-.11.22a1,1,0,0,1-.31.39s-.06,0-.08,0,0,.09-.06.09-.11,0-.17,0,0,.09-.08.11a1.07,1.07,0,0,1-.31.06H87.8a.2.2,0,0,1-.11.06s0,0,0-.09.09-.22.14-.36a.06.06,0,0,0,.09,0c-.09-.22.36-.36.36-.61,0-.09.16-.17.25-.31s0,0,0,0a3.79,3.79,0,0,1,.87-.95c.08-.05.14-.22.31-.22,0,0,0-.06,0-.09s.09-.08.17-.13l.14,0s0-.05,0-.08a.33.33,0,0,1,.17-.08s0-.06,0-.09a.34.34,0,0,0,.17,0s0,0,.06-.08.22,0,.3-.11Zm-92,4.68s0,0,0,0Zm8.45,0s0,0,0,0Zm31.78,0s0,0,0,0Zm59.5.9s.09.11.14.11a.21.21,0,0,0,.14,0v.08a1.48,1.48,0,0,1,.37.28.56.56,0,0,1,0,.28c0,.31-.19.36-.39.58,0,0-.17,0-.22.12l-.62.05L98.76,52c-.08-.09-.17-.09-.22-.12a3.28,3.28,0,0,0-.26-.22.14.14,0,0,0-.13-.11v-.47c.11-.06.16-.2.27-.28s.14,0,.14-.11.12,0,.28-.14.42,0,.48,0Z" style="fill: #273b8f;fill-rule: evenodd"/>
        <path d="M85,7h-3.9c-.11,0-.17,0-.17.11l.23,14.39H81s.14,0,4.1,0V7.08Zm27.24,3.6h-.94a.75.75,0,0,0-.2.11c-.06,0-.17,0-.19,0-.23,0-.28.22-.42.22a2.2,2.2,0,0,1-.28.33s-.06.06-.09,0v.11c0,.11-.08.31-.08.37s.08.25.08.36.09.08.09.11a.34.34,0,0,1,0,.14l.12.11s.11,0,.16.06a.7.7,0,0,1,.2.22s.11,0,.14,0,.08.11.14.11.19,0,.28,0,.13.08.19.08a1,1,0,0,0,.28,0,1.3,1.3,0,0,0,.5-.11c.06-.06.2,0,.28,0l.17-.11s.08,0,.08,0,.22-.17.34-.25.19-.25.3-.36,0-.2,0-.25.08-.09.08-.14-.08-.09-.08-.11,0-.2,0-.28a.83.83,0,0,1-.22-.28.47.47,0,0,1-.17-.14c-.11,0-.25-.14-.39-.22s-.17,0-.19,0S112.34,10.6,112.25,10.6ZM61,13.41H55.65a1,1,0,0,1-.28.23s0,.11-.11.11-.08.08-.11.11,0,.05-.08.11a6.27,6.27,0,0,1-.53.59,4,4,0,0,1-.56.61.25.25,0,0,0-.11.19c0,.06,0,.06,0,.09H54a.23.23,0,0,1,.14-.09l2.48,0s0,0,0,0h3.71c.09,0,.14.11.2.11s.16,0,.25,0,0,.08-.06.08a.59.59,0,0,1,.31.19c0,.06-.06,0,.08.17v2.37c-.05,0-.05.09-.08.11H52.84v3.21H65.41l0-5.58a.26.26,0,0,0-.06-.16l0-.06a.82.82,0,0,0-.06-.39l0-.06a.3.3,0,0,0,0-.16s-.11-.06-.11-.14-.06,0-.14-.25c-.11-.06-.23-.14-.25-.25,0,.08-.11-.12-.11-.12a.2.2,0,0,1-.09,0c-.17-.2-.44-.25-.64-.45-.11,0-.25,0-.28-.11s-.17,0-.19,0-.09-.08-.12-.08-.22,0-.27,0-.12-.08-.14-.08c-.2-.06-.42,0-.59-.12h-.58s0,0-.06-.08,0,.08-.06.08-.11,0-.16-.08S61.15,13.44,61,13.41Zm34.26,0H89.92a5.17,5.17,0,0,1-.81.81c0,.11-.11.14-.14.2a.22.22,0,0,1-.11,0,.11.11,0,0,1,0,.14.11.11,0,0,0-.08,0,.11.11,0,0,1-.11.13l-.11.12a.87.87,0,0,1-.23.3s-.14,0-.14,0v.31h.14a.17.17,0,0,1,.11-.09l2.51,0s.06,0,.06,0H94.6c.14,0,.26.16.39.11a3.59,3.59,0,0,1,.39.39l0,2.56H87.1v3.21l12.41,0c.09,0,.11-.06.14-.09V16.12a1.72,1.72,0,0,0-.08-.59c0-.11-.14-.22-.17-.31a2.28,2.28,0,0,0-.42-.64l.06,0c-.06,0-.2,0-.2-.06v-.06c-.08,0-.14-.11-.25-.14s0-.05-.08-.08a1.2,1.2,0,0,1-.2-.11s-.11,0-.11,0a.1.1,0,0,1-.08-.11c-.14,0-.23,0-.28-.11s-.28,0-.31-.11a.84.84,0,0,1-.3,0c-.09,0-.09-.08-.12-.08s-.47,0-.64-.12h-.64c-.08,0-.11,0-.17-.08S95.41,13.44,95.27,13.41ZM68.4,20.72l0,0Zm5.07,2.84h0S73.49,23.56,73.47,23.56Zm-5-2.9v0s.12,0,.14.1l.17.11a.35.35,0,0,1,.14.11l.14.06s0,.06.08.06.14.08.23.11.22,0,.22.17c.19,0,.25,0,.31.08a.61.61,0,0,0,.22,0s.08.08.11.08.2,0,.28,0,.08.08.14.08.25,0,.36,0,.14.08.2.08.32,0,.46.1c0,0,0-.07,0-.07s.22.08.33.11h2.43a2.1,2.1,0,0,0,0,.59c0,.05-.13.05-.13.14s0,.08,0,.11a.06.06,0,0,1-.09,0c0,.05,0,.08,0,.14s-.08.19-.19.19,0,.11-.06.11h0c0,.09-.11.11-.14.14-.2.15-.09.15-.23.14v0c0,.06-.13.06-.19.06s-.08.08-.11.08a.64.64,0,0,1-.22,0s-.09.08-.12.08-.36,0-.53.06a.05.05,0,0,1,0,.05,4,4,0,0,1-.75.06A3.61,3.61,0,0,1,71,24v0S71,24,71,24s-.31-.11-.5-.14H69.9c-.08,0-.11-.11-.17-.11s-.3,0-.41,0-.06-.08-.14-.08l-.17,0v.14c0,.09,0,0,0,0v1.23a3,3,0,0,0,.28.17h.51c.08,0,.19.11.27.11.28,0,.56,0,.81,0l.06.06a12,12,0,0,0,1.39.06.53.53,0,0,1,.31.08h.75c.08,0,.14-.06.2-.08h.55a2.55,2.55,0,0,0,.73-.06,1,1,0,0,1,.22-.08c.09,0,0,0,.06,0s0-.08.14,0a1,1,0,0,0,.25,0s.08-.11.14-.11.25,0,.36,0a2.63,2.63,0,0,1,.45-.11s0-.09.11-.09.17,0,.22,0,.08-.05.11-.08.17,0,.2,0,.22-.11.25-.14a2.16,2.16,0,0,0,.31-.19s.11,0,.11,0,.19-.2.33-.22.14-.11.2-.23a.08.08,0,0,0,.08,0c-.06-.17.06-.08.11-.22V13.5H76.29c-.09,0-.09-.06-.14-.06h-4.3a2.11,2.11,0,0,0-.22.08h-.75c-.09,0-.14.06-.2.09s-.25,0-.36,0-.11.08-.14.08-.22,0-.28,0-.11.11-.17.11h-.14c0,.05-.11.14-.16.14s-.09,0-.11,0c-.09.17,0,.08-.23.14s-.08.06-.22.11a.36.36,0,0,1-.17.11c0,.06-.08.11-.11.11h-.06c-.22.25-.41.48-.61.67,0,.06,0,.11,0,.14s-.08.06-.08.09a.21.21,0,0,1,0,.14.31.31,0,0,0-.08.19c0,.17-.09.31-.11.47a4.2,4.2,0,0,1-.14.59v2c.19.11.08.39.14.55s0,.06.08.14,0,.2.06.25a1.15,1.15,0,0,1,.08.28.13.13,0,0,1,.08,0,2.84,2.84,0,0,1,.17.36C68.17,20.44,68.42,20.58,68.42,20.66Zm6-5v3.87h-.8a3,3,0,0,1-1.15-.39,1.83,1.83,0,0,1-.41-.58V16.45c.5-.67,1.2-.56,1.84-.75Zm32.85-1.81h-1.14v5.27l-.06.05v2.15c0,.06.06.08.06.14s0,.28,0,.39.08.08.08.11,0,.14,0,.17c.16,0,.08.19.16.25a1.46,1.46,0,0,1,.2.25A3.6,3.6,0,0,0,107,23c.06,0,.11.09.17.12a1.13,1.13,0,0,0,.33.14s.09.08.09.11.22,0,.28.11.22,0,.3.11.23,0,.31,0,.08.08.11.08.36-.05.61.14h.65a3,3,0,0,1,.39.11h2.34c.08,0,.36-.08.53-.11h.72c.09,0,.17-.11.25-.11s.34,0,.51,0,.08-.08.16-.08.23,0,.34,0,.08-.08.14-.08.16,0,.25,0,.05-.11.14-.11-.06.05,0,.05,0-.05.16-.05.17-.11.37-.23c0,0,.11,0,.11,0l.19-.12s.06-.05.09-.08h.14c0-.14,0-.11.08-.14a1.64,1.64,0,0,1,.22-.25.34.34,0,0,1,.14-.11s0-.14,0-.17.08-.08.08-.14,0-.33,0-.44.11-.12.17-.17h12V13.89h-4.35V18.4h-7.72s-.08-.11-.11-.14V14H113v2.29l-.06,0v4.18a2,2,0,0,0,0,.42c0,.14-.11.25-.14.39s-.22.39-.44.37c0,0,0,.08-.06.08-.19,0-.5.06-.58.06a5,5,0,0,1-.53-.06s-.06-.06-.06-.08-.28-.14-.33-.25-.06,0-.09,0-.08-.17-.14-.25,0-.14,0-.2-.08-.17-.08-.25.06,0,.06-.08-.06-.06-.06-.06V19.1c0-.06.06,0,.06-.06s-.06,0-.06-.05,0,0,.06-.06v-1c0-.08-.06-.11-.06-.14l0-3.71a.2.2,0,0,0-.17-.11s-.08.06-.17.06-.11-.06-.16-.06-.09.06-.11.06l-2.26,0Zm16.45,9a2,2,0,0,0-.42,0h-.39l-.16.08a.69.69,0,0,1-.23,0,.22.22,0,0,1-.14.08s-.11,0-.11,0-.14.11-.19.11-.09.11-.14.11-.2.28-.31.45v.64a2,2,0,0,1,.25.34s0,.05,0,.08a.3.3,0,0,1,.2.05.09.09,0,0,0,0,.06.14.14,0,0,1,.17.08s.16,0,.25.12.16,0,.25,0,.11.09.17.09a2.6,2.6,0,0,0,.44,0,2.86,2.86,0,0,0,.48,0s.08-.09.13-.09.17,0,.23,0,.11-.09.22-.12a.36.36,0,0,1,.17-.11,2.28,2.28,0,0,0,.22-.22.09.09,0,0,1,0,.06c0-.14.28-.4.28-.67a.42.42,0,0,0-.06-.25s-.08,0-.08-.12a.25.25,0,0,0,0-.14c-.11-.08-.31-.19-.33-.36a.27.27,0,0,1-.23-.11.35.35,0,0,1-.22-.11.72.72,0,0,1-.25,0C123.85,22.92,123.8,22.84,123.74,22.84Zm-31,19.6h0Zm-.69.06.66,0s0,0,0,0,.22-.14.33-.19.11-.11.14-.14.14-.14.14-.37a.36.36,0,0,0-.06-.22c-.05-.05-.14-.17-.22-.25s-.11-.08-.17-.14-.11,0-.11,0-.08-.08-.11-.08-.22,0-.33,0-.14-.05-.23-.05-.22.08-.28.08,0-.06,0-.06,0,0,0,0a.64.64,0,0,1-.22,0c-.09.11-.09.06-.23.11a4.07,4.07,0,0,0-.36.36V42a2.44,2.44,0,0,0,.36.36.36.36,0,0,0,.17,0s.08.08.11.08Zm23.4-1.59s0,0,0,0Zm.3.08c-.1,0-.22,0-.28-.05s0,0,0,.05h-.75c-.06.11-.23.08-.28.11a4.13,4.13,0,0,1-.37.36V42c.09.06.2.12.2.2s.14.08.17.14.16,0,.22.11.47.11.56.11l.58-.11a1.7,1.7,0,0,1,.23-.11,1,1,0,0,0,.39-.39.73.73,0,0,0,0-.2c0-.22-.08-.11-.11-.42-.17,0-.17,0-.14-.11a.25.25,0,0,1-.22-.11s-.11,0-.11,0S115.82,41,115.79,41Zm8.31,0h0C124.15,41,124.18,41,124.1,41Zm.06,6.89c-.12-6-.07-6.78-.06-6.88L124,41h-2.7v6.78a1.35,1.35,0,0,1-.14.22h-.06a.11.11,0,0,1-.08.11c-.08,0-.17,0-.25.06h-3.07a.7.7,0,0,1-.39-.09s.06,0,.06,0-.17,0-.23-.17-.08,0-.08-.06L117,44a.18.18,0,0,0,0-.11c-.17-.17-.34-.11-.5-.17s-.12-.08-.14-.08c-.23-.09-.48,0-.67-.11H115c-.08,0-.11-.09-.16-.09a4.56,4.56,0,0,0-1,0,3.16,3.16,0,0,0-1,0,5.91,5.91,0,0,1-.67.09c-.08,0-.14.08-.2.08a1.23,1.23,0,0,0-.33,0c-.08,0-.11.08-.14.08a.64.64,0,0,1-.22,0c-.14.14-.14.08-.28.11s-.06.11-.11.11-.09,0-.11,0a.36.36,0,0,1-.17.14c-.06,0-.11.11-.17.11s0,.09,0,.09a.25.25,0,0,1-.12,0,.41.41,0,0,1-.14.2.3.3,0,0,1,0,.14s-.09,0-.09.08,0,.11,0,.14l-.08.17v.61c0,.06.06.09.08.17s0,.11,0,.17a.23.23,0,0,1,.11.14,1.32,1.32,0,0,0,.34.33,2.39,2.39,0,0,1,.33.25c.09,0,.14.06.23.11s.14,0,.25.11.16,0,.22,0,.06.09.11.09.2,0,.28,0a2.09,2.09,0,0,0,.53.12s.06,0,.08,0a1.43,1.43,0,0,0,.34.06,1.46,1.46,0,0,1,.36,0s.06,0,.09,0a2.28,2.28,0,0,0,.78,0s0,0,.05,0,.06,0,.11,0,.06,0,.09,0,0,0,0,.08a.36.36,0,0,1-.11.28.31.31,0,0,1-.16.22c-.09,0-.2,0-.31.06h-6.3a.61.61,0,0,1-.25-.06c-.09,0-.09-.11-.11-.11s-.12,0-.14-.05a.57.57,0,0,0-.09-.28l0-6.67h-2.63c-.11,0-.16,0-.16.11v6.5c0,.06,0,.36,0,.53s.09.08.09.11,0,.14,0,.17.14.22.14.22a1.28,1.28,0,0,0,.3.28.5.5,0,0,1,.06.08s.14,0,.19.12.17.11.2.11.25,0,.28.11a.71.71,0,0,1,.33.14c.17,0,.36-.09.62.14h7.58c.08,0,.11,0,.11-.06.17-.17.33,0,.53-.08,0,0,0-.09.11-.09s-.05.06,0,.06,0-.06.06-.08a1.63,1.63,0,0,0,.44-.14c.11-.06.14-.09.22-.09a.22.22,0,0,1,.2.09,4.67,4.67,0,0,0,.5.14c.06,0,.11.11.17.11s.17,0,.22,0,.23.11.34.14h5c.08,0,.25-.11.33-.11s.23,0,.34,0,.08-.11.16-.11.14,0,.2,0,.08-.06.11-.08.11,0,.14,0,.2-.11.25-.09c0-.16.09-.11.11-.14s.06-.05.09-.08.11,0,.11,0,0-.11.14-.08c0-.14.08-.25.14-.36s0,0,0-.06S124.1,48,124.16,47.88Zm-9.84-3.18v1.73h-.59c-.22-.11-.47-.14-.7-.25,0-.06-.16-.12-.19-.14s0,0,0-.06-.09,0-.11,0,0,0,0-.06,0,0-.11,0a2.46,2.46,0,0,0,0-.47v-.12c0-.05,0-.14,0-.22a.73.73,0,0,0,.2-.22c.14,0,.14-.09.19-.14Zm14.83-3.65c0-.06-.06-.09-.14-.09h-2.68v8.59h2.82Zm-16.67,1.5a.12.12,0,0,0,0,0A.08.08,0,0,0,112.48,42.55Zm0-.08a0,0,0,0,1,0,0c0-.1.18,0,.26-.06s.19-.08.22-.11a2.42,2.42,0,0,0,.39-.31v-.58c-.11,0-.2-.14-.22-.23s-.17,0-.2-.11-.11,0-.14,0-.11-.08-.17-.08a10.85,10.85,0,0,0-1.14,0v0a2.43,2.43,0,0,1-.28.14c-.08.11-.28.28-.28.42v.11c0,.06,0,.17,0,.2a1.6,1.6,0,0,0,.39.39c.06,0,.11,0,.14,0s.08.08.11.08.14,0,.2,0-.06.05,0,.05,0-.05,0-.05a2.55,2.55,0,0,1,.28.08C112.23,42.55,112.39,42.47,112.45,42.47ZM76.26,41.1h-.67c-.14,0-.22.14-.36.11a.28.28,0,0,1-.2.14.17.17,0,0,1-.06.11.08.08,0,0,1,0-.05c0,.05-.06.14-.11.17a.09.09,0,0,1,0-.06c0,.11-.11.31-.11.36s.08.23.08.31a.89.89,0,0,1,.17.17c0-.06,0,0,.08.08s.17,0,.22.11.31.06.34.17h.64c.08,0,.11-.11.19-.14s.14,0,.17,0a1.46,1.46,0,0,0,.2-.11,1.53,1.53,0,0,0,.36-.36.51.51,0,0,0,.06-.2.32.32,0,0,0-.06-.17,1.59,1.59,0,0,0-.33-.36.81.81,0,0,1-.2-.14s-.14,0-.17,0S76.34,41.1,76.26,41.1Zm1.67,1.26h0Zm.06,0,0,0c.17,0,.16.12.34.17a.06.06,0,0,1-.05,0c.11,0,.22,0,.3,0s.12.11.17.14h.64c0-.17.25-.14.34-.17a2,2,0,0,0,.19-.11c.09-.06.09-.08.17-.11s.08-.11.14-.11,0,0,0-.64a.31.31,0,0,1-.17-.12c-.06-.05-.14-.05-.11-.14a.21.21,0,0,1-.22-.11s-.14,0-.17,0-.11-.08-.14-.08a1.65,1.65,0,0,0-.39,0h-.39c-.06,0-.11.08-.14.08a.46.46,0,0,1-.2,0c0,.06-.05.14-.11.14s-.05,0-.08,0,0,.14-.17.14-.08.23-.11.34v.08c0,.09,0,.23,0,.31A.38.38,0,0,1,78,42.33Zm-3.24,1.84s0,0,0,0Zm0,0s0,0,0,0Zm-.94.79h0S73.88,45,73.86,45ZM75,44c0,.13-.16.14-.23.16s0,0,0,0-.11,0-.17,0,0,.09-.06.09-.08,0-.11,0c-.14.17-.44.37-.53.62l0,0v0c0,.11-.23.19-.2.36a2.59,2.59,0,0,0-.22.45v.08c0,.11-.09.22-.11.33v1.06c0,.06,0,.09.08.17s0,.25,0,.34.12,0,.12.11.11.25.19.39a.2.2,0,0,1,0,.11,1.9,1.9,0,0,1,.47.47l.17.11a.29.29,0,0,0,.14,0c.08.14.14.06.25.2a.29.29,0,0,0,.14,0s-.06.08,0,.08-.06-.06,0-.06,0,.06,0,.06.23,0,.31.14a.54.54,0,0,0,.22,0s0,.08.06.08,0-.05,0-.05.11.08.16.08.34,0,.5.06l23.09,0a1.9,1.9,0,0,1,.34-.11c.11,0,.25,0,.36,0s.25-.11.33-.14a1.34,1.34,0,0,1,.25-.11s.06-.06.09-.09.11,0,.11,0,.06-.06.08-.09h.14c0-.16.11-.14.11-.14s.06-.08.09-.11a.09.09,0,0,0,.08,0c0-.22.22-.34.22-.56,0,0,.09-.05.09-.08s0-.06,0-.11l0-4.46H99v4.26c-.11,0-.14.14-.22.14s0,.11-.06.11-.16,0-.28.06h-3l-.09.08-.08-.08a.46.46,0,0,0,0-.2.11.11,0,0,0,.08-.11s0-.17,0-.19.14-.14.14-.2-.06-.22,0-.28a1.31,1.31,0,0,1,.09-.17,1.88,1.88,0,0,0,0-.33c0-.06,0-.25,0-.39l-.06-.06a2.17,2.17,0,0,1,0-.44.85.85,0,0,1-.11-.14c0-.06,0-.11,0-.17s-.08-.05-.08-.11a.54.54,0,0,0-.25-.47,0,0,0,0,0,0-.06c-.09-.06-.14-.17-.11-.22s-.14,0-.14-.09a.85.85,0,0,1-.25-.25s-.12-.08-.17-.11-.25-.08-.34-.25a.31.31,0,0,1-.22-.11c-.08,0-.25,0-.28-.11s-.16,0-.19,0-.09-.08-.14-.08-.25,0-.34,0a2.15,2.15,0,0,0-.72-.09,2.77,2.77,0,0,0-.62,0c-.08,0-.11.09-.16.09s0-.06,0-.06,0,.06-.06.06a.88.88,0,0,0-.28,0c-.08,0-.11.08-.13.08a.92.92,0,0,1-.28,0c-.09.16-.23.08-.28.11s-.11.11-.17.11h-.11a.29.29,0,0,1-.22.11c0,.06-.06.11-.09.11a1.65,1.65,0,0,1-.47.25c0,.12-.17.12-.17.12s-.14.13-.19.25,0-.06,0-.06a.61.61,0,0,1-.2.17s-.11.11-.16.11l-.12.11-.11.11a.2.2,0,0,1,0,.14.11.11,0,0,0-.09,0,.32.32,0,0,1-.22.25c0,.06,0,.12-.08.12s-.2.28-.25.28-.06,0-.09-.06c0-.25.14-.7.14-.78s0-.22-.14-.25H84.79V48c-.08.22-.31.08-.45.17H81.05l-.08.08a2.09,2.09,0,0,1-.17-.14V44a.12.12,0,0,0-.11-.11s-.11,0-.17,0-.14-.11-.19-.11-.25,0-.34,0a1.54,1.54,0,0,0-.19-.08h-.5a3.3,3.3,0,0,1-.34-.11H76.7a.9.9,0,0,0-.25.08c-.14,0-.28,0-.42,0s-.11.08-.14.08-.22,0-.27,0-.12.11-.17.11-.11,0-.14,0a.17.17,0,0,1-.14.11C75.11,44,75.06,44,75,44Zm3,1v3.21a.19.19,0,0,0-.14-.06h-.64c-.08,0-.19,0-.28-.06a0,0,0,0,0,0,0c-.08,0,0,0,0,0s0-.08-.05-.11a.47.47,0,0,1-.17,0c-.06-.12-.09-.06-.14-.12s0-.22-.11-.19a1.51,1.51,0,0,0-.06-.36l0,0V45.87a.73.73,0,0,0,.11-.25v-.14c.11-.11.14-.28.25-.39s.14-.06.19-.14Zm14.17,0s0,.08,0,.08a.11.11,0,0,0,.09,0,1.34,1.34,0,0,1,.3.36c.06.09,0,.31.14.34,0,.22.12.61.12.67s-.09.44-.12.67c0,0-.05,0-.11.08a.1.1,0,0,0,.06,0c0,.08-.11.14-.11.22a1,1,0,0,1-.31.39s-.06,0-.08,0,0,.09-.06.09-.11,0-.17,0,0,.09-.08.11a1.07,1.07,0,0,1-.31.06H87.8a.2.2,0,0,1-.11.06s0,0,0-.09.09-.22.14-.36a.06.06,0,0,0,.09,0c-.09-.22.36-.36.36-.61,0-.09.16-.17.25-.31s0,0,0,0a3.79,3.79,0,0,1,.87-.95c.08-.05.14-.22.31-.22,0,0,0-.06,0-.09s.09-.08.17-.13l.14,0s0-.05,0-.08a.33.33,0,0,1,.17-.08s0-.06,0-.09a.34.34,0,0,0,.17,0s0,0,.06-.08.22,0,.3-.11Zm7.69,5.58-.55,0c-.06,0-.31,0-.48,0s-.28.11-.28.14,0,0-.14.11-.16.22-.27.28v.47a.14.14,0,0,1,.13.11,3.28,3.28,0,0,1,.26.22s.14,0,.22.12l.58.05L100,52c.05-.09.19-.09.22-.12.2-.22.39-.27.39-.58a.56.56,0,0,0,0-.28,1.48,1.48,0,0,0-.37-.28v-.08a.21.21,0,0,1-.14,0C100,50.64,99.9,50.58,99.87,50.53Z" style="fill: #e82428;fill-rule: evenodd"/>
        <path d="M21.48,8.48a4.06,4.06,0,1,1,4.06,4A4.06,4.06,0,0,1,21.48,8.48Z" style="fill: #e82428;fill-rule: evenodd"/>
      </g>
    </g>
  </g>
</svg>
